<svg width="536" height="700" viewBox="0 0 536 700" fill="none" xmlns="http://www.w3.org/2000/svg">
<path opacity="0.5" fill-rule="evenodd" clip-rule="evenodd" d="M50.1048 337.834C50.0374 337.362 49.9028 336.889 49.8354 336.417C49.6334 335.269 49.4313 334.189 49.2293 333.042L48.9599 331.422C48.7579 330.342 48.6232 329.194 48.4212 328.114L48.1518 326.494C48.0171 325.414 47.8151 324.334 47.6804 323.186L47.4783 321.431C47.3436 320.351 47.209 319.271 47.1416 318.258C47.0743 317.651 47.0069 316.976 46.9396 316.368C46.8049 315.356 46.7375 314.343 46.6702 313.331C46.6702 312.656 46.5355 311.981 46.5355 311.373C46.4682 310.361 46.4008 309.348 46.3335 308.335C46.3335 307.728 46.3335 307.12 46.2661 306.445C46.2661 305.433 46.1314 304.353 46.1314 303.34C46.1314 302.665 46.1314 302.058 46.1314 301.383C46.1314 300.37 46.1314 299.358 46.1314 298.413C46.1314 297.737 46.1314 296.995 46.1314 296.252C46.1314 295.307 46.1314 294.295 46.1314 293.35C46.1314 292.675 46.1314 291.932 46.1314 291.257C46.1314 290.312 46.1314 289.3 46.1988 288.354C46.1988 287.612 46.2661 286.802 46.3335 286.059C46.3335 285.114 46.4008 284.237 46.4682 283.292C46.4682 282.684 46.5355 282.009 46.6028 281.402C46.7375 279.444 46.9396 277.486 47.0743 275.529C47.1416 274.786 47.209 274.111 47.2763 273.369C47.411 272.424 47.4783 271.479 47.613 270.601C47.6804 269.859 47.8151 269.116 47.8824 268.374C48.0171 267.496 48.1518 266.686 48.2191 265.808C48.3538 264.998 48.4885 264.121 48.6232 263.243C48.7579 262.433 48.8926 261.623 49.0273 260.813C49.162 259.936 49.2966 259.126 49.4987 258.248C49.6334 257.438 49.8354 256.56 49.9701 255.75C50.1721 254.94 50.3068 254.063 50.5089 253.253C50.7109 252.443 50.8456 251.633 51.0476 250.823C51.2497 250.013 51.4517 249.135 51.6537 248.325C51.8558 247.515 52.0578 246.705 52.2598 245.895C52.4619 245.085 52.6639 244.207 52.9333 243.397C53.1353 242.587 53.3374 241.845 53.6067 241.035C53.8761 240.157 54.0782 239.28 54.3475 238.402C54.5496 237.659 54.819 236.849 55.021 236.107C55.2904 235.297 55.5597 234.419 55.8291 233.542C56.0985 232.732 56.3679 231.922 56.6373 231.179C56.9067 230.369 57.176 229.559 57.5128 228.682C57.7821 227.939 58.0515 227.129 58.3209 226.319C58.6576 225.441 58.9944 224.564 59.3311 223.686C59.6005 222.944 59.8698 222.269 60.1392 221.526C60.4759 220.649 60.88 219.771 61.2167 218.894C61.4861 218.151 61.8228 217.476 62.0922 216.733C62.4963 215.856 62.833 214.978 63.2371 214.101C63.5738 213.426 63.8432 212.751 64.1799 212.008C64.6513 211.063 65.0554 210.118 65.5268 209.173C65.8636 208.565 66.1329 207.89 66.4023 207.283C66.8737 206.27 67.4125 205.258 67.8839 204.245C68.1533 203.705 68.4227 203.098 68.7594 202.558C69.2982 201.478 69.9043 200.398 70.5104 199.385C70.7798 198.913 71.0491 198.44 71.3185 197.9C72.194 196.347 73.0695 194.795 73.945 193.31C74.8205 191.825 75.7633 190.34 76.7061 188.855C77.0429 188.314 77.3796 187.842 77.7163 187.302C78.3224 186.357 78.9285 185.412 79.5346 184.467C79.9387 183.859 80.3428 183.319 80.7468 182.712C81.3529 181.834 81.8917 180.957 82.4978 180.147C82.9019 179.607 83.3059 178.999 83.71 178.459C84.3161 177.649 84.9222 176.771 85.5283 175.961C85.9998 175.354 86.4038 174.814 86.8752 174.206C87.4813 173.464 88.0201 172.654 88.6262 171.911C89.0976 171.304 89.569 170.696 90.1078 170.089C90.7139 169.346 91.2527 168.671 91.8588 167.928C92.3302 167.321 92.869 166.713 93.3404 166.106C93.9465 165.431 94.5526 164.756 95.0913 164.013C95.6301 163.406 96.1689 162.798 96.7076 162.191C97.3137 161.516 97.9199 160.841 98.526 160.233C99.0647 159.626 99.6035 159.018 100.142 158.478C100.748 157.803 101.354 157.195 102.028 156.52C102.567 155.98 103.105 155.373 103.712 154.833C104.385 154.158 104.991 153.55 105.665 152.875C106.203 152.335 106.742 151.795 107.281 151.255C107.954 150.58 108.695 149.905 109.436 149.23C109.975 148.758 110.446 148.285 110.985 147.812C111.726 147.07 112.534 146.395 113.342 145.72C113.813 145.315 114.285 144.842 114.823 144.437C115.766 143.627 116.709 142.817 117.652 142.075C118.393 141.467 119.134 140.86 119.874 140.252C120.75 139.577 121.625 138.835 122.501 138.159C123.107 137.687 123.78 137.214 124.454 136.674C125.127 136.134 125.801 135.594 126.542 135.122C127.215 134.649 127.888 134.177 128.495 133.704C129.168 133.232 129.909 132.692 130.582 132.219C131.256 131.747 131.996 131.274 132.67 130.802C133.343 130.329 134.017 129.857 134.69 129.452C135.431 128.979 136.172 128.507 136.845 128.034C137.519 127.629 138.192 127.156 138.866 126.751C139.607 126.279 140.347 125.806 141.088 125.334C141.762 124.929 142.435 124.524 143.108 124.119C143.849 123.646 144.657 123.241 145.398 122.769C146.072 122.364 146.745 122.026 147.351 121.621C148.159 121.149 148.967 120.744 149.776 120.271C150.382 119.934 150.988 119.596 151.594 119.259C152.469 118.786 153.345 118.313 154.22 117.841C154.759 117.571 155.365 117.233 155.904 116.963C156.847 116.491 157.722 116.018 158.665 115.613C159.204 115.343 159.743 115.073 160.281 114.803C161.224 114.331 162.167 113.926 163.11 113.453C163.581 113.251 164.12 112.981 164.659 112.778C165.669 112.306 166.679 111.901 167.689 111.428L168.767 110.956C174.357 108.593 180.014 106.5 185.738 104.61H185.873C187.152 104.138 188.432 103.733 189.644 103.395L190.654 103.058C191.866 102.72 193.079 102.315 194.291 102.045L195.368 101.708C196.58 101.37 197.793 101.033 199.005 100.763L200.15 100.425C201.295 100.155 202.507 99.8851 203.652 99.6151L204.999 99.2775C206.211 99.0075 207.423 98.7375 208.568 98.4675L209.78 98.1975C210.992 97.9275 212.272 97.725 213.484 97.4549L214.562 97.2524C215.841 97.0499 217.188 96.7799 218.468 96.5774L219.208 96.4424C220.623 96.2399 222.037 96.0374 223.384 95.8349H223.855C225.337 95.5648 226.818 95.3623 228.367 95.2273C241.298 93.7423 254.43 93.3372 267.63 94.1473H267.899C269.448 94.2823 271.064 94.3498 272.681 94.4848H272.95C274.566 94.6198 276.115 94.7548 277.731 94.9573H278.001C279.617 95.1598 281.166 95.2948 282.782 95.4973H282.984C306.218 98.4 329.452 104.948 351.811 115.208L227.29 331.354C226.953 331.962 226.751 332.569 226.684 333.177L160.079 448.81L142.839 478.714C119.403 461.906 99.8729 441.587 84.5855 419.041C83.6427 417.623 82.7672 416.273 81.8917 414.856L81.757 414.653C80.8815 413.303 80.006 411.953 79.1979 410.603L78.9959 410.333C78.1877 408.983 77.3796 407.633 76.5714 406.215L76.4367 405.945C75.6286 404.595 74.8205 403.178 74.0797 401.828L73.8776 401.558C73.1368 400.208 72.396 398.79 71.6552 397.372L71.4532 397.035C70.7124 395.617 69.9716 394.267 69.2982 392.85L69.1635 392.58C68.4227 391.162 67.7492 389.745 67.0758 388.259V388.124C61.3514 376.176 56.8393 363.823 53.4047 351.2V350.863C52.9333 349.513 52.5966 348.23 52.2598 346.88L51.9905 345.935C51.7211 344.652 51.3843 343.437 51.115 342.155L50.8456 341.007C50.5762 339.792 50.3068 338.645 50.1048 337.429V337.834ZM461.112 424.576C460.237 426.061 459.294 427.614 458.351 429.032C458.014 429.572 457.678 430.112 457.341 430.584C456.735 431.529 456.129 432.474 455.523 433.352C455.118 433.959 454.647 434.634 454.243 435.242C453.704 436.052 453.165 436.862 452.559 437.672C452.088 438.279 451.684 438.887 451.213 439.562C450.674 440.372 450.068 441.115 449.462 441.925C448.99 442.532 448.519 443.14 448.115 443.747C447.509 444.49 446.97 445.3 446.364 446.042C445.892 446.65 445.421 447.257 444.882 447.865C444.276 448.607 443.737 449.283 443.131 450.025C442.592 450.633 442.121 451.24 441.582 451.848C440.976 452.523 440.37 453.265 439.764 453.94C439.225 454.48 438.754 455.088 438.282 455.628C437.609 456.37 437.003 457.045 436.329 457.72C435.79 458.26 435.319 458.8 434.78 459.34C434.107 460.016 433.433 460.758 432.76 461.433C432.221 461.973 431.75 462.513 431.211 463.053C430.538 463.728 429.864 464.403 429.258 465.011C428.719 465.551 428.18 466.091 427.642 466.631C426.968 467.238 426.295 467.913 425.621 468.521C425.083 469.061 424.476 469.534 423.938 470.074C423.197 470.749 422.523 471.356 421.783 472.031C421.244 472.504 420.705 472.976 420.166 473.449C419.156 474.326 418.146 475.136 417.136 476.014C416.866 476.216 416.597 476.486 416.328 476.689C415.048 477.769 413.769 478.781 412.422 479.794C411.883 480.199 411.277 480.672 410.738 481.077C409.997 481.617 409.256 482.224 408.516 482.764C407.842 483.304 407.169 483.777 406.428 484.249C405.755 484.722 405.081 485.194 404.408 485.667C403.734 486.139 403.061 486.612 402.387 487.084C401.714 487.557 400.973 488.029 400.3 488.502C399.626 488.974 398.885 489.447 398.145 489.92C397.471 490.392 396.798 490.797 396.124 491.27C395.383 491.742 394.643 492.215 393.902 492.62C393.228 493.025 392.555 493.43 391.814 493.902C391.073 494.375 390.332 494.78 389.524 495.252C388.851 495.657 388.177 496.062 387.504 496.4C386.763 496.872 385.955 497.277 385.214 497.682C384.541 498.02 383.867 498.425 383.194 498.762C382.386 499.168 381.578 499.64 380.77 500.045C380.096 500.383 379.49 500.72 378.816 501.058C377.941 501.463 377.133 501.935 376.257 502.34C375.651 502.61 375.112 502.88 374.506 503.15C373.564 503.623 372.621 504.028 371.678 504.5C371.206 504.77 370.668 504.973 370.129 505.175C369.119 505.648 368.109 506.053 367.098 506.525C366.627 506.728 366.223 506.93 365.752 507.065C364.674 507.538 363.529 508.01 362.452 508.415C356.727 510.711 350.868 512.736 344.942 514.558L344.066 514.828C342.854 515.166 341.709 515.503 340.497 515.841L339.285 516.178C338.073 516.516 336.928 516.786 335.716 517.123L334.503 517.461C333.291 517.798 332.079 518.068 330.934 518.338L329.722 518.608C328.51 518.878 327.23 519.148 326.018 519.419L324.94 519.621C323.661 519.891 322.381 520.094 321.102 520.364L320.024 520.566C318.745 520.769 317.465 521.039 316.118 521.241L315.243 521.376C313.896 521.579 312.482 521.781 311.135 521.984H310.596C309.114 522.254 307.7 522.456 306.218 522.591H305.882C291.402 524.279 276.587 524.481 261.771 523.266H261.636C260.02 523.131 258.403 522.996 256.787 522.794H256.652C255.036 522.591 253.42 522.389 251.736 522.186H251.601C229.984 519.419 208.366 513.613 187.489 504.568C185.873 503.893 184.256 503.15 182.64 502.408L227.29 424.914L227.492 424.576L392.016 138.97C416.934 156.79 437.407 178.594 453.031 202.828L453.166 202.963C454.041 204.313 454.916 205.663 455.725 207.013L455.927 207.35C456.735 208.701 457.543 209.983 458.351 211.333L458.553 211.738C459.294 213.088 460.102 214.438 460.843 215.721L461.045 216.126C461.786 217.476 462.526 218.826 463.267 220.244L463.402 220.514C464.143 221.931 464.884 223.349 465.557 224.766L465.692 225.036C466.432 226.454 467.106 227.939 467.779 229.357C473.436 241.372 478.016 253.793 481.45 266.483V266.753C481.922 268.103 482.259 269.454 482.595 270.804L482.865 271.749C483.134 273.031 483.471 274.246 483.74 275.529L484.01 276.676C484.279 277.891 484.548 279.039 484.75 280.254L485.02 281.672C485.222 282.819 485.491 283.967 485.693 285.114L485.963 286.599C486.165 287.747 486.367 288.827 486.501 289.975L486.771 291.595C486.905 292.675 487.107 293.755 487.242 294.835C487.31 295.442 487.377 296.05 487.444 296.657C487.579 297.737 487.714 298.75 487.781 299.83L487.983 301.653C488.118 302.733 488.185 303.813 488.252 304.893C488.252 305.5 488.32 306.108 488.387 306.715C488.454 307.795 488.522 308.808 488.589 309.888C488.589 310.563 488.656 311.171 488.724 311.846C488.724 312.858 488.791 313.871 488.858 314.883C488.858 315.558 488.858 316.233 488.858 316.908C488.858 317.921 488.858 318.934 488.926 319.946C488.926 320.621 488.926 321.229 488.926 321.836C488.926 322.849 488.926 323.861 488.926 324.941C488.926 325.616 488.926 326.224 488.926 326.899C488.926 327.911 488.926 328.992 488.858 330.004C488.858 330.544 488.858 331.084 488.791 331.692C488.589 335.539 488.32 339.387 487.916 343.235C487.916 343.775 487.781 344.382 487.714 344.922C487.646 345.732 487.512 346.61 487.377 347.487C487.31 348.297 487.175 349.175 487.04 349.985C486.905 350.795 486.771 351.673 486.703 352.483C486.569 353.293 486.501 354.103 486.367 354.98C486.232 355.858 486.097 356.668 485.895 357.545C485.761 358.355 485.626 359.166 485.491 359.976C485.356 360.786 485.154 361.663 485.02 362.473C484.885 363.283 484.683 364.161 484.481 364.971C484.279 365.781 484.144 366.591 483.942 367.401C483.74 368.211 483.538 369.089 483.336 369.899C483.134 370.709 482.932 371.519 482.73 372.329C482.528 373.139 482.326 374.016 482.057 374.826C481.855 375.636 481.585 376.446 481.383 377.256C481.114 378.066 480.912 378.944 480.642 379.754C480.373 380.564 480.171 381.307 479.902 382.117C479.632 382.994 479.363 383.872 479.093 384.749C478.824 385.492 478.622 386.234 478.353 386.977C478.083 387.854 477.746 388.732 477.41 389.61C477.14 390.352 476.871 391.095 476.602 391.837C476.265 392.715 475.928 393.592 475.591 394.47C475.322 395.212 475.053 395.955 474.716 396.697C474.379 397.575 473.975 398.453 473.638 399.33C473.369 400.073 473.032 400.748 472.763 401.49C472.426 402.368 472.022 403.245 471.618 404.055C471.281 404.798 470.945 405.473 470.675 406.215C470.271 407.093 469.867 407.97 469.463 408.848C469.126 409.523 468.79 410.266 468.453 410.941C467.981 411.886 467.51 412.763 467.039 413.641C466.702 414.316 466.365 414.923 466.028 415.598C465.49 416.611 464.951 417.623 464.412 418.636C464.143 419.176 463.806 419.716 463.537 420.256C462.661 421.809 461.786 423.294 460.91 424.846L461.112 424.576ZM154.355 552.023C156.241 552.9 158.126 553.778 160.012 554.588L160.955 554.993C162.437 555.668 163.918 556.275 165.4 556.883L167.42 557.693C168.7 558.233 170.047 558.705 171.326 559.245C172.134 559.583 172.942 559.853 173.683 560.191C174.828 560.596 175.973 561.001 177.118 561.473C178.061 561.811 179.003 562.148 179.946 562.486C181.024 562.891 182.101 563.228 183.246 563.566C184.324 563.903 185.469 564.308 186.546 564.646L189.105 565.456C190.452 565.861 191.799 566.266 193.079 566.671C193.819 566.873 194.627 567.143 195.368 567.346C196.85 567.751 198.331 568.156 199.813 568.561L201.429 568.966C203.046 569.371 204.595 569.776 206.211 570.114L207.894 570.518C209.578 570.856 211.194 571.261 212.878 571.599L214.225 571.869C216.043 572.206 217.794 572.544 219.613 572.881L220.69 573.084C222.576 573.421 224.529 573.759 226.482 574.029L227.155 574.164C229.108 574.434 231.129 574.704 233.082 574.974H233.688C235.708 575.311 237.796 575.514 239.883 575.784H240.422C242.577 576.054 244.665 576.256 246.82 576.391H246.887H247.022C249.177 576.526 251.399 576.729 253.555 576.796H253.824C256.046 576.931 258.269 576.999 260.491 577.066H260.693C262.915 577.066 265.205 577.134 267.495 577.134C269.448 577.134 271.468 577.134 273.421 577.066H275.374L275.24 577.134V577.269L275.105 577.404L275.038 577.539L274.903 577.674L274.768 577.809V577.944H274.634L274.499 578.079V578.214L274.364 578.349L274.297 578.484L274.162 578.619L274.027 578.754V578.889H273.893L273.758 579.024V579.159L273.623 579.294L273.556 579.429V579.564H273.421L273.287 579.699H273.219V579.834L273.085 579.969L273.017 580.104L272.883 580.239L272.815 580.374V580.509H272.681V580.644L272.546 580.712L272.478 580.914L272.411 581.049L272.276 581.184L272.209 581.319V581.454H272.074L271.94 581.589V581.724L271.805 581.859L271.738 581.994L271.603 582.129V582.264L271.401 582.399L271.334 582.602V582.737L271.199 582.872L271.132 583.007V583.142H271.064L270.93 583.277V583.412H270.795V583.547H270.66L270.525 583.817L270.458 583.952V584.087H270.391L270.256 584.222V584.357V584.492H270.121V584.627L269.987 584.762L269.919 584.897V585.032H269.852V585.167L269.717 585.234L269.583 585.504L269.515 585.639V585.774H269.448L229.714 654.763L229.512 655.1L227.155 659.218C225.202 662.593 222.98 665.698 220.488 668.533C217.929 671.436 215.168 674.001 212.137 676.296C209.107 678.659 205.807 680.617 202.372 682.304C198.938 683.992 195.301 685.342 191.597 686.354C187.893 687.367 184.122 687.974 180.283 688.244C176.512 688.514 172.673 688.379 168.834 687.907C165.467 687.502 162.1 686.759 158.867 685.679C155.837 684.734 152.874 683.519 150.045 682.034L149.439 681.764L147.419 680.617C144.051 678.659 140.953 676.431 138.125 673.934C135.229 671.369 132.603 668.601 130.38 665.563C128.023 662.526 126.003 659.218 124.319 655.775C122.636 652.333 121.289 648.687 120.278 644.975C119.268 641.262 118.662 637.482 118.393 633.634C118.123 629.854 118.258 626.006 118.729 622.159C119.201 618.378 120.076 614.666 121.289 611.021C122.501 607.443 124.05 604 126.003 600.625L154.759 550.673H154.826L154.355 552.023ZM267.495 40.8871C119.74 40.8871 0 160.976 0 309.011C0 311.103 0 313.196 0.0673451 315.221V316.436C0.13469 318.461 0.202035 320.419 0.336726 322.444V323.456C0.471416 325.346 0.606106 327.236 0.740797 329.127V329.869C0.942832 331.827 1.14487 333.852 1.3469 335.809L1.48159 337.092C1.68363 339.05 1.88566 341.007 2.15504 342.965L2.28974 343.775C2.49177 345.597 2.76115 347.352 3.03053 349.175L3.16522 350.255C3.4346 352.145 3.77133 354.035 4.10805 355.925L4.37743 357.275C4.71416 359.166 5.05089 361.123 5.45496 363.013L5.58965 363.553C5.92637 365.308 6.33044 367.063 6.73452 368.819L7.07124 370.169C7.47531 371.991 7.94673 373.814 8.41814 375.569L8.75487 376.986C9.15894 378.607 9.56301 380.159 10.0344 381.712L10.3038 382.724C10.8426 384.479 11.314 386.234 11.8527 387.989L12.3242 389.542C12.8629 391.23 13.4017 392.985 14.0078 394.672L14.4792 396.09C14.9506 397.507 15.422 398.858 15.9608 400.275C16.1628 400.748 16.2975 401.288 16.4996 401.76C17.1057 403.38 17.7118 404.933 18.3179 406.553C18.5873 407.16 18.7893 407.835 19.0587 408.443C19.6648 409.861 20.2035 411.278 20.8097 412.696C21.079 413.303 21.3484 413.911 21.6178 414.586C22.1566 415.801 22.6953 417.083 23.2341 418.298C23.5035 418.906 23.7728 419.514 24.0422 420.189C24.7157 421.674 25.3891 423.091 26.0626 424.576C26.3993 425.251 26.736 425.926 27.0728 426.669C27.6115 427.749 28.1503 428.829 28.689 429.909C29.0931 430.719 29.5645 431.597 29.9686 432.407C30.5747 433.554 31.1808 434.634 31.7196 435.782C32.1236 436.524 32.4604 437.199 32.8644 437.942C33.6052 439.292 34.346 440.642 35.1542 441.992C35.5582 442.667 35.9623 443.342 36.3664 444.085C36.9051 444.962 37.4439 445.84 37.9153 446.785C38.5214 447.73 39.0602 448.742 39.6663 449.688C40.2724 450.633 40.8785 451.645 41.4846 452.59C42.0234 453.4 42.5621 454.21 43.0336 455.02C43.5723 455.83 44.1111 456.64 44.6498 457.45C45.3906 458.598 46.1314 459.678 46.9396 460.826C47.411 461.501 47.8824 462.243 48.3538 462.918C48.8926 463.728 49.4987 464.538 50.0374 465.348C50.8456 466.428 51.6537 467.508 52.3945 468.656C53.0006 469.466 53.6067 470.276 54.2802 471.154C54.7516 471.761 55.1557 472.301 55.6271 472.909C56.6373 474.191 57.6474 475.541 58.725 476.824C59.129 477.364 59.6005 477.904 60.0045 478.444C60.678 479.254 61.3514 480.132 62.0249 480.942L62.833 481.887C64.1126 483.439 65.4595 484.992 66.8064 486.477L67.8839 487.692C69.1635 489.109 70.5104 490.595 71.7899 492.012C72.1267 492.35 72.4634 492.687 72.7328 493.025C73.5409 493.902 74.349 494.712 75.1572 495.59L75.7633 496.197C77.2449 497.75 78.7938 499.303 80.3428 500.788L81.2856 501.733C83.9121 504.298 86.5385 506.728 89.2323 509.158L90.0405 509.901C91.6568 511.318 93.273 512.736 94.9567 514.153L95.6975 514.761C98.526 517.191 101.422 519.486 104.385 521.781L105.058 522.321C106.944 523.806 108.897 525.224 110.85 526.641L110.985 526.776C112.062 527.519 113.073 528.329 114.15 529.071L85.3937 579.024L85.1916 579.362C81.8244 585.302 79.0632 591.445 76.9082 597.722C74.6858 604.27 73.1368 610.953 72.2613 617.636C71.3859 624.521 71.1838 631.407 71.6552 638.224C72.1267 645.11 73.2715 651.928 75.0225 658.61C76.7735 665.293 79.1979 671.774 82.2958 677.916C85.3263 684.059 88.8956 689.932 93.1383 695.4C97.2464 700.8 101.893 705.795 107.079 710.318C112.062 714.706 117.45 718.621 123.376 722.064L123.78 722.266C129.841 725.776 136.037 728.544 142.435 730.772C148.967 732.999 155.635 734.552 162.302 735.429C169.171 736.307 176.04 736.509 182.842 736.104C189.711 735.632 196.513 734.484 203.18 732.729C209.645 730.974 215.976 728.612 222.037 725.709C228.031 722.806 233.755 719.296 239.143 715.246C244.396 711.263 249.379 706.74 253.891 701.745C258.269 696.885 262.309 691.485 265.811 685.612L266.417 684.667L266.754 683.992L309.047 610.548L309.249 610.211C311.135 606.97 313.29 604 315.714 601.233C318.273 598.33 321.034 595.697 324.065 593.47C327.095 591.107 330.395 589.149 333.83 587.462C337.264 585.774 340.901 584.424 344.605 583.412C348.309 582.399 352.08 581.792 355.919 581.522C359.69 581.252 363.529 581.387 367.368 581.859C371.072 582.332 374.843 583.209 378.48 584.424C382.049 585.639 385.484 587.192 388.851 589.149C392.218 591.107 395.316 593.335 398.145 595.832C401.04 598.397 403.667 601.165 405.889 604.203C408.246 607.24 410.267 610.548 411.883 613.991C413.567 617.433 414.913 621.079 415.924 624.791C416.934 628.504 417.54 632.284 417.809 636.132C418.079 639.912 417.944 643.76 417.473 647.607C417.001 651.32 416.126 655.1 414.913 658.745C413.701 662.323 412.152 665.766 410.199 669.141L374.372 731.312C374.372 731.312 374.102 731.987 373.968 732.324C373.429 734.417 374.641 736.172 376.796 736.172H421.917C423.87 736.172 425.621 735.159 426.632 733.472L450.337 692.295C453.839 686.219 456.6 680.009 458.823 673.596C461.045 667.048 462.594 660.366 463.469 653.615C464.345 646.797 464.547 639.845 464.143 633.027C463.671 626.141 462.526 619.323 460.776 612.641C459.025 605.958 456.6 599.477 453.57 593.335C450.539 587.192 446.97 581.319 442.727 575.851C438.619 570.451 433.972 565.456 428.787 560.866C423.736 556.41 418.146 552.428 412.152 548.917L411.95 548.782H411.883L411.816 548.647H411.614V548.512L411.412 548.377H411.344L411.21 548.242H411.007V548.107L410.805 547.972L410.671 547.837H410.536V547.702L410.334 547.567L410.199 547.432H410.065V547.365L409.863 547.23L409.728 547.095H409.593V546.96H409.391V546.825H409.257L409.122 546.69H409.054L408.852 546.555L408.65 546.42H408.516L408.448 546.352L408.246 546.217H408.044L407.977 546.082H407.842L407.64 545.947L407.438 545.812H407.371L407.236 545.677H407.034V545.61L406.832 545.475H406.765L406.63 545.407H406.495V545.34L406.293 545.205L406.159 545.137H406.024V545.07H405.822V544.935H405.687L405.553 544.8L405.35 544.665L405.148 544.597H405.014L404.946 544.53H404.744V544.395H404.542L404.408 544.26H404.34L404.138 544.125L403.936 544.057H403.869L403.734 543.99H403.532V543.922H403.33L403.263 543.787H403.128L402.926 543.652L402.724 543.585H402.657L402.522 543.517H402.387V543.45H402.185V543.315H402.051L401.916 543.18L401.714 543.045L401.579 542.977H401.444V542.91H401.242V542.775H401.108L400.973 542.64H400.906L400.704 542.505L400.502 542.437C401.646 541.762 402.791 541.155 403.869 540.48L404.812 539.872C408.246 537.847 411.546 535.754 414.913 533.594L415.991 532.919C419.224 530.759 422.456 528.531 425.621 526.236L426.699 525.426C429.797 523.131 432.895 520.769 435.858 518.338L437.003 517.393C439.966 515.031 442.862 512.533 445.69 510.036L446.902 508.956C447.778 508.145 448.653 507.403 449.529 506.593L450.135 505.985C451.819 504.433 453.502 502.88 455.119 501.26L456.331 500.045C457.139 499.235 458.014 498.425 458.823 497.547L459.765 496.535C461.18 495.117 462.594 493.632 463.941 492.147C464.412 491.607 464.884 491.135 465.355 490.595C466.096 489.785 466.837 488.974 467.577 488.164C468.049 487.624 468.52 487.084 468.992 486.544C470.136 485.194 471.281 483.912 472.426 482.562C472.965 481.954 473.504 481.347 473.975 480.672C474.581 479.929 475.255 479.119 475.861 478.376C476.467 477.634 477.006 476.959 477.612 476.216C478.555 475.069 479.43 473.854 480.373 472.706C480.912 471.964 481.518 471.221 482.057 470.479C482.595 469.736 483.201 468.926 483.74 468.183C484.279 467.441 484.885 466.631 485.424 465.888C486.232 464.741 487.107 463.526 487.916 462.378C488.454 461.568 489.06 460.758 489.667 459.881C490.138 459.138 490.677 458.395 491.148 457.653C491.754 456.775 492.293 455.898 492.899 455.02C493.573 454.008 494.246 452.995 494.852 451.915C495.458 450.903 496.132 449.89 496.738 448.877C497.209 448.135 497.613 447.46 498.017 446.717C498.623 445.705 499.23 444.692 499.836 443.68C500.24 443.005 500.644 442.33 500.981 441.655C501.789 440.305 502.53 438.954 503.27 437.537C503.607 436.862 504.011 436.187 504.348 435.512C504.954 434.364 505.56 433.284 506.099 432.137C506.368 431.597 506.638 431.057 506.907 430.517C507.715 428.964 508.456 427.411 509.197 425.926C509.533 425.251 509.803 424.576 510.14 423.969C510.678 422.754 511.284 421.606 511.823 420.391C512.025 419.851 512.295 419.379 512.564 418.839C513.305 417.218 513.978 415.598 514.719 413.978L515.46 412.156C515.999 410.873 516.47 409.658 517.009 408.375C517.211 407.835 517.413 407.295 517.682 406.755C518.356 405.068 518.962 403.38 519.635 401.625C519.837 401.085 520.039 400.613 520.174 400.073C520.645 398.723 521.117 397.372 521.588 395.955C521.79 395.415 521.925 394.942 522.127 394.402C522.733 392.647 523.272 390.892 523.811 389.07C523.945 388.597 524.08 388.124 524.215 387.652C524.686 386.234 525.09 384.749 525.494 383.264C525.629 382.724 525.831 382.252 525.966 381.712C526.437 379.889 526.976 378.134 527.447 376.311L527.784 374.961C528.188 373.476 528.525 371.924 528.861 370.439L529.198 368.886C529.602 367.063 530.006 365.173 530.41 363.283C530.478 362.878 530.612 362.406 530.68 362.001C531.017 360.448 531.286 358.828 531.623 357.275L531.892 355.79C532.229 353.833 532.565 351.943 532.835 349.985L532.969 349.04C533.239 347.352 533.441 345.665 533.71 343.91L533.912 342.357C534.182 340.4 534.384 338.442 534.586 336.417V335.674C534.855 333.919 534.99 332.097 535.125 330.274L535.259 328.721C535.394 326.696 535.529 324.671 535.663 322.714V322.241C535.798 320.351 535.865 318.393 535.865 316.503V315.018C535.933 312.993 536 310.901 536 308.808C536 306.715 536 304.623 535.933 302.598V301.383C535.865 299.358 535.798 297.4 535.663 295.375V294.362C535.529 292.472 535.394 290.582 535.259 288.692V288.017C535.057 285.992 534.855 284.034 534.653 282.009L534.518 280.794C534.316 278.837 534.114 276.879 533.845 274.854L533.71 274.044C533.508 272.221 533.239 270.399 532.969 268.576L532.835 267.563C532.565 265.673 532.229 263.716 531.892 261.826L531.623 260.476C531.286 258.586 530.949 256.628 530.545 254.738L530.41 254.198C530.074 252.443 529.67 250.688 529.266 248.933L528.929 247.582C528.525 245.76 528.053 243.937 527.582 242.182L527.245 240.832C526.841 239.212 526.37 237.524 525.898 235.904L525.696 235.094C525.157 233.272 524.619 231.517 524.08 229.762L523.609 228.344C523.07 226.589 522.464 224.834 521.925 223.146L521.521 221.931C520.982 220.446 520.511 218.961 519.972 217.543L519.5 216.193C518.894 214.573 518.288 212.886 517.615 211.266L516.941 209.511C516.335 207.958 515.729 206.473 515.056 204.92C514.854 204.448 514.652 203.975 514.45 203.435C513.911 202.085 513.305 200.803 512.699 199.453L511.958 197.697C511.284 196.212 510.611 194.727 509.87 193.242C509.533 192.567 509.264 191.96 508.927 191.352C508.321 190.137 507.782 188.922 507.176 187.774C506.907 187.167 506.57 186.559 506.233 186.019C505.56 184.669 504.819 183.387 504.146 182.037C503.809 181.362 503.472 180.754 503.136 180.147C502.395 178.729 501.587 177.311 500.779 175.961C500.442 175.354 500.038 174.746 499.701 174.139C499.095 173.126 498.556 172.114 497.95 171.169C497.613 170.561 497.209 169.954 496.873 169.346C496.064 168.063 495.256 166.713 494.448 165.431C493.977 164.688 493.505 163.946 493.034 163.203C492.428 162.258 491.754 161.246 491.148 160.301C490.542 159.356 489.869 158.41 489.263 157.465C488.724 156.655 488.118 155.845 487.579 155.035C487.04 154.293 486.501 153.55 486.03 152.808C485.222 151.66 484.346 150.513 483.538 149.365C482.999 148.623 482.393 147.88 481.855 147.137C481.316 146.395 480.777 145.72 480.238 144.977C479.363 143.83 478.487 142.75 477.612 141.602C477.073 140.927 476.534 140.252 475.996 139.577C475.389 138.835 474.783 138.092 474.177 137.349C473.571 136.607 472.898 135.864 472.292 135.122C471.349 134.042 470.406 132.894 469.463 131.814L468.116 130.262C467.039 129.047 465.894 127.831 464.816 126.616C464.345 126.076 463.806 125.536 463.335 124.996C462.594 124.254 461.853 123.444 461.112 122.701C460.708 122.296 460.304 121.891 459.9 121.419C458.62 120.069 457.274 118.786 455.994 117.503L454.714 116.288C453.233 114.803 451.684 113.386 450.135 111.968L449.529 111.361C448.653 110.551 447.845 109.808 446.97 108.998L445.96 108.12C444.478 106.77 442.929 105.488 441.38 104.138L440.37 103.26C437.609 100.898 434.78 98.67 431.884 96.4424L430.942 95.6999C429.123 94.2823 427.238 92.9322 425.419 91.5822L425.15 91.3796C424.14 90.6371 423.062 89.8946 421.985 89.152L427.238 80.0391L458.351 25.9689C459.833 23.4037 458.957 20.0286 456.398 18.5435L441.043 9.63306L425.689 0.722615C423.13 -0.762459 419.762 0.115085 418.281 2.68021L411.479 14.5608C411.007 14.9658 410.536 15.4383 410.199 16.0459L381.578 65.7284C377.874 63.9733 374.17 62.3532 370.398 60.8006L369.658 60.4631C367.839 59.7206 366.088 59.0455 364.27 58.303L362.99 57.8305C361.576 57.2904 360.162 56.7504 358.748 56.2779C358.007 56.0079 357.266 55.7379 356.525 55.4678C355.246 54.9953 353.899 54.5903 352.619 54.1178C351.676 53.7803 350.734 53.5103 349.858 53.2402C348.848 52.9027 347.838 52.6327 346.828 52.2952C345.683 51.9577 344.538 51.6202 343.393 51.2826C342.45 51.0126 341.507 50.7426 340.564 50.4726C339.352 50.1351 338.14 49.7976 336.86 49.46C336.052 49.2575 335.311 49.055 334.503 48.8525C333.089 48.515 331.675 48.11 330.193 47.84C329.52 47.705 328.779 47.5024 328.106 47.3674C326.557 47.0299 325.075 46.6924 323.526 46.3549L321.842 46.0174C320.091 45.6799 318.408 45.3423 316.657 45.0048L315.445 44.8023C313.626 44.4648 311.808 44.1948 309.922 43.8573L308.98 43.7223C307.094 43.4522 305.141 43.1822 303.188 42.9122H302.447C300.427 42.5747 298.406 42.3047 296.386 42.1022H295.78C293.692 41.8322 291.604 41.6297 289.449 41.4946H289.18C287.025 41.2921 284.87 41.1571 282.648 41.0221H282.311C280.088 40.8871 277.933 40.8196 275.711 40.7521H275.442C273.219 40.7521 270.93 40.6846 268.707 40.6846L267.495 40.8871Z" fill="white"/>
</svg>
