<svg width="137" height="43" viewBox="0 0 137 43" fill="none" xmlns="http://www.w3.org/2000/svg">
<g clip-path="url(#clip0_552_858)">
<path d="M128.859 22.0523H119.539C118.488 22.0523 117.952 22.6519 117.956 23.4015C117.964 24.5416 119.272 26.0367 121.792 26.3326H121.804L121.875 26.3405H121.891L121.946 26.3484H121.962L122.033 26.3562H122.044L122.1 26.3602C122.139 26.3602 122.178 26.3641 122.218 26.3681H122.237C122.281 26.3681 122.328 26.372 122.371 26.376H122.383H122.399C122.442 26.376 122.486 26.376 122.529 26.376H122.545H122.56C122.608 26.376 122.655 26.376 122.706 26.376C125.467 26.376 127.807 25.0978 128.591 23.3344C128.607 23.3028 128.618 23.2673 128.634 23.2358C128.646 23.2003 128.662 23.1687 128.673 23.1332C128.685 23.0938 128.697 23.0622 128.709 23.0306V23.0267C128.721 22.9912 128.729 22.9596 128.74 22.9241C128.752 22.8886 128.76 22.8531 128.768 22.8176C128.776 22.7821 128.784 22.7466 128.792 22.7111C128.8 22.6756 128.807 22.6401 128.811 22.6046C128.823 22.5296 128.835 22.4586 128.843 22.3876C128.851 22.3166 128.855 22.2417 128.859 22.1667C128.859 22.1273 128.859 22.0917 128.859 22.0523ZM128.583 26.0328C127.11 27.7922 125.014 29.0704 122.616 29.0704C119.508 29.0704 115.841 27.1176 115.841 23.6303C115.841 23.0188 115.975 22.4389 116.215 21.9182L116.235 21.8787V21.8748C116.247 21.8511 116.258 21.8235 116.274 21.7998V21.7919L116.282 21.788L116.302 21.7485L116.321 21.7051V21.7012L116.341 21.6657V21.6617L116.361 21.6223V21.6184L116.384 21.5789L116.408 21.5355L116.432 21.4961V21.4882L116.451 21.4527L116.475 21.4132C116.491 21.3895 116.506 21.3619 116.526 21.3383V21.3304H116.534L116.558 21.2949C116.577 21.2673 116.597 21.2436 116.613 21.216L116.64 21.1765L116.668 21.141L116.692 21.1055L116.699 21.0976L116.727 21.0621L116.735 21.0542L116.759 21.0266V21.0187L116.786 20.9872L116.814 20.9517V20.9477C116.833 20.928 116.849 20.9043 116.869 20.8846L116.877 20.8767L116.885 20.8688L116.9 20.853L116.908 20.8412L116.94 20.8057L116.971 20.7702C117.259 20.4783 117.586 20.2337 117.948 20.0404C118.925 19.5196 119.819 19.5749 120.898 19.5749H128.815C128.815 17.1803 126.058 15.2394 122.655 15.2394C121.28 15.2394 120.012 15.555 118.984 16.0915C118.834 16.1704 118.649 16.1151 118.563 15.9692L117.609 14.3202C117.523 14.1703 117.574 13.9809 117.72 13.8902C119.102 13.0499 120.808 12.5568 122.651 12.5568C127.252 12.5568 130.982 15.6417 131.001 19.4486V28.6285C131.001 28.8021 130.86 28.9441 130.686 28.9441H128.855C128.681 28.9441 128.54 28.8021 128.54 28.6285V26.0446L128.583 26.0328Z" fill="#114171"/>
<path fill-rule="evenodd" clip-rule="evenodd" d="M73.6516 7.02597H71.8004C71.631 7.02597 71.4932 7.16404 71.4932 7.33368V28.6207C71.4932 28.7903 71.631 28.9284 71.8004 28.9284H73.6516C73.821 28.9284 73.9589 28.7903 73.9589 28.6207V7.33762C73.9589 7.16799 73.821 7.02992 73.6516 7.02992" fill="#114171"/>
<path fill-rule="evenodd" clip-rule="evenodd" d="M91.5465 20.8057C91.5465 23.8867 88.7027 26.3839 85.1971 26.3839C81.6916 26.3839 78.8477 23.8867 78.8477 20.8057C78.8477 17.7247 81.6916 15.2275 85.1971 15.2275C88.7027 15.2275 91.5465 17.7247 91.5465 20.8057ZM76.9492 20.8057C76.9492 25.37 80.6438 29.0704 85.1971 29.0704C89.7504 29.0704 93.4489 25.37 93.4489 20.8057C93.4489 16.2414 89.7543 12.545 85.1971 12.545C80.6399 12.545 76.9492 16.2453 76.9492 20.8057Z" fill="#114171"/>
<path fill-rule="evenodd" clip-rule="evenodd" d="M136.693 7.02597H134.841C134.672 7.02597 134.534 7.16404 134.534 7.33368V28.6207C134.534 28.7903 134.672 28.9284 134.841 28.9284H136.693C136.862 28.9284 137 28.7903 137 28.6207V7.33762C137 7.16799 136.862 7.02992 136.693 7.02992" fill="#114171"/>
<path fill-rule="evenodd" clip-rule="evenodd" d="M46.3361 18.0482C46.3361 24.1352 51.2636 29.0704 57.3412 29.0704C63.4188 29.0704 68.3462 24.1352 68.3462 18.0482V17.1211C68.3462 16.9515 68.2084 16.8134 68.039 16.8134H58.2589C58.1329 16.8134 58.0462 16.8962 57.9871 16.9949L56.8331 18.9989C56.8212 19.0186 56.8173 19.0383 56.8094 19.0581C56.7779 19.1843 56.8488 19.2829 56.9748 19.2829H65.9514C65.3055 23.1332 61.7014 26.084 57.3451 26.084C52.5358 26.084 48.6364 22.4862 48.6364 18.0482C48.6364 13.6101 52.4255 10.1149 57.1403 10.0162C57.2072 10.0162 57.2742 10.0162 57.3372 10.0162C57.3963 10.0162 57.4554 10.0162 57.5145 10.0162C57.5736 10.0162 57.6287 10.0162 57.6838 10.0202H57.6917C57.7469 10.0202 57.8059 10.0241 57.8611 10.0281H57.865C57.9202 10.0281 57.9753 10.036 58.0305 10.0399H58.0423C58.0974 10.0439 58.1526 10.0478 58.2077 10.0557H58.2156C58.2707 10.0636 58.3298 10.0675 58.3849 10.0754C58.4401 10.0794 58.4952 10.0872 58.5464 10.0951H58.5543H58.5622C58.6173 10.103 58.6685 10.1109 58.7237 10.1188C58.834 10.1346 58.9443 10.1543 59.0545 10.174H59.0703C59.1254 10.1859 59.1766 10.1977 59.2279 10.2095C59.2791 10.2214 59.3342 10.2332 59.3854 10.245H59.4012C59.4524 10.2608 59.5036 10.2727 59.5548 10.2845H59.5666C59.6729 10.3121 59.7793 10.3397 59.8856 10.3713H59.8896C60.2795 10.4857 60.6576 10.6198 61.02 10.7776H61.024C61.0673 10.7973 61.1106 10.8171 61.15 10.8368C61.2997 10.9039 61.473 10.8486 61.5557 10.7066L61.6778 10.4936L62.6625 8.78541C62.7058 8.70651 62.7176 8.62761 62.694 8.54082C62.6704 8.45404 62.6192 8.39092 62.5404 8.34752C60.9885 7.50725 59.2082 7.02991 57.3215 7.02991C51.2439 7.02991 46.3164 11.965 46.3164 18.0521" fill="#114171"/>
<path fill-rule="evenodd" clip-rule="evenodd" d="M66.751 42.925H65.4985L67.4915 40.2109L65.6048 37.6743H66.9007L68.1454 39.3983L69.3822 37.6743H70.6347L68.7677 40.2109L70.7923 42.925H69.4964L68.1257 41.0117L66.755 42.925H66.751ZM82.0927 38.6132H80.6708V40.0452H82.0927C82.3291 40.0452 82.5142 39.9821 82.656 39.8519C82.7978 39.7217 82.8687 39.5482 82.8687 39.3351C82.8687 39.1221 82.7978 38.9446 82.656 38.8144C82.5142 38.6803 82.3251 38.6171 82.0927 38.6171V38.6132ZM79.5837 42.925V37.6743H82.2109C82.4669 37.6743 82.7033 37.7177 82.9199 37.7966C83.1365 37.8794 83.3216 37.9938 83.4792 38.1359C83.6328 38.2818 83.7549 38.4554 83.8416 38.6566C83.9282 38.8578 83.9715 39.0787 83.9715 39.3193C83.9715 39.56 83.9282 39.7691 83.8416 39.9703C83.7549 40.1675 83.6328 40.3371 83.4753 40.4831C83.3177 40.6291 83.1326 40.7395 82.9159 40.8224C82.6993 40.9013 82.4669 40.9407 82.2109 40.9407H80.6669V42.9211H79.5798L79.5837 42.925ZM93.0348 42.925V37.6743H97.0642V38.6211H94.1219V39.8204H96.0598V40.7356H94.1219V41.9822H97.0957V42.929H93.0348V42.925ZM108.684 38.6132H107.305V40.0255H108.684C108.928 40.0255 109.125 39.9624 109.271 39.8322C109.416 39.702 109.491 39.5324 109.491 39.3233C109.491 39.1142 109.416 38.9446 109.271 38.8144C109.125 38.6842 108.928 38.6171 108.684 38.6171V38.6132ZM106.222 42.925V37.6743H108.782C109.046 37.6743 109.29 37.7138 109.511 37.7927C109.731 37.8716 109.924 37.986 110.082 38.128C110.243 38.27 110.366 38.4436 110.456 38.6408C110.547 38.842 110.59 39.0629 110.59 39.2996C110.59 39.631 110.496 39.9269 110.31 40.1833C110.125 40.4397 109.873 40.637 109.566 40.7593L110.728 42.9211H109.515L108.487 40.9092H107.305V42.9211H106.218L106.222 42.925ZM119.271 38.6369V37.6783H123.884V38.6369H122.123V42.929H121.036V38.6369H119.267H119.271ZM132.47 42.0927L133.093 41.3116C133.396 41.5759 133.691 41.7692 133.971 41.8915C134.255 42.0138 134.55 42.0769 134.865 42.0769C135.18 42.0769 135.448 42.0177 135.645 41.8954C135.838 41.7771 135.936 41.6153 135.936 41.4141C135.936 41.2327 135.869 41.0946 135.739 40.992C135.606 40.8934 135.385 40.8184 135.078 40.7671L134.038 40.5857C133.589 40.5107 133.246 40.3529 133.014 40.1123C132.781 39.8716 132.667 39.5639 132.667 39.1813C132.667 38.6921 132.852 38.3016 133.226 38.0175C133.597 37.7335 134.101 37.5915 134.735 37.5915C135.113 37.5915 135.499 37.6585 135.885 37.7848C136.271 37.9149 136.61 38.0964 136.901 38.3252L136.318 39.1339C136.039 38.9209 135.763 38.7592 135.495 38.6566C135.227 38.554 134.948 38.5027 134.664 38.5027C134.381 38.5027 134.14 38.558 133.967 38.6645C133.794 38.771 133.703 38.917 133.703 39.0945C133.703 39.2562 133.762 39.3785 133.876 39.4693C133.991 39.56 134.184 39.6231 134.451 39.6626L135.44 39.8282C135.96 39.915 136.35 40.0807 136.614 40.3253C136.878 40.5738 137.008 40.8973 137.008 41.3037C137.008 41.8126 136.807 42.2228 136.405 42.5266C136.003 42.8304 135.468 42.9842 134.798 42.9842C134.377 42.9842 133.967 42.9053 133.557 42.7436C133.152 42.5818 132.789 42.3609 132.474 42.0769L132.47 42.0927ZM52.8076 42.925V37.6743H56.837V38.6211H53.8947V39.8204H55.8326V40.7356H53.8947V41.9822H56.8685V42.929H52.8076V42.925Z" fill="#114171"/>
<path fill-rule="evenodd" clip-rule="evenodd" d="M98.9042 19.2356C99.7077 16.9199 102.248 15.2315 105.254 15.2315C108.759 15.2315 111.603 17.7286 111.603 20.8096C111.603 23.8907 108.759 26.3878 105.254 26.3878C102.248 26.3878 99.7117 24.6994 98.9042 22.3837C98.7309 21.8866 98.6364 21.358 98.6364 20.8096C98.6364 20.2613 98.7309 19.7366 98.9042 19.2356ZM98.5852 7.02597H96.7497C96.5764 7.02597 96.4346 7.16799 96.4346 7.34157V28.6167C96.4346 28.7903 96.5764 28.9323 96.7497 28.9323H98.5852C98.7585 28.9323 98.9003 28.7903 98.9003 28.6167V26.084C100.413 27.9066 102.697 29.0704 105.25 29.0704C109.807 29.0704 113.501 25.37 113.501 20.8057C113.501 16.2414 109.807 12.545 105.25 12.545C102.697 12.545 100.413 13.7048 98.9003 15.5313V7.34551C98.9003 7.17193 98.7585 7.02992 98.5852 7.02992V7.02597Z" fill="#114171"/>
<path fill-rule="evenodd" clip-rule="evenodd" d="M2.93048 19.7327C2.92654 19.7051 2.91866 19.6774 2.91473 19.6498C2.90291 19.5828 2.89109 19.5196 2.87928 19.4526L2.86352 19.3579C2.8517 19.2948 2.84383 19.2277 2.83201 19.1646L2.81626 19.0699C2.80838 19.0068 2.79656 18.9437 2.78868 18.8766L2.77687 18.774C2.76899 18.7109 2.76111 18.6478 2.75717 18.5886C2.75323 18.5531 2.7493 18.5137 2.74536 18.4782C2.73748 18.419 2.73354 18.3598 2.7296 18.3006C2.7296 18.2612 2.72172 18.2217 2.72172 18.1862C2.71778 18.1271 2.71385 18.0679 2.70991 18.0087C2.70991 17.9732 2.70991 17.9377 2.70597 17.8983C2.70597 17.8391 2.69809 17.776 2.69809 17.7168C2.69809 17.6773 2.69809 17.6418 2.69809 17.6024C2.69809 17.5432 2.69809 17.484 2.69809 17.4288C2.69809 17.3894 2.69809 17.346 2.69809 17.3026C2.69809 17.2473 2.69809 17.1882 2.69809 17.1329C2.69809 17.0935 2.69809 17.0501 2.69809 17.0106C2.69809 16.9554 2.69809 16.8962 2.70203 16.841C2.70203 16.7976 2.70597 16.7503 2.70991 16.7069C2.70991 16.6517 2.71385 16.6004 2.71779 16.5451C2.71779 16.5096 2.72172 16.4702 2.72566 16.4347C2.73354 16.3203 2.74536 16.2059 2.75323 16.0915C2.75717 16.0481 2.76111 16.0086 2.76505 15.9652C2.77293 15.91 2.77687 15.8548 2.78474 15.8035C2.78868 15.7601 2.79656 15.7167 2.8005 15.6733C2.80838 15.622 2.81626 15.5747 2.82019 15.5234C2.82807 15.4761 2.83595 15.4248 2.84383 15.3735C2.8517 15.3262 2.85958 15.2788 2.86746 15.2315C2.87534 15.1802 2.88322 15.1328 2.89503 15.0816C2.90291 15.0342 2.91473 14.9829 2.9226 14.9356C2.93442 14.8883 2.9423 14.837 2.95411 14.7896C2.96593 14.7423 2.97381 14.695 2.98562 14.6476C2.99744 14.6003 3.00926 14.549 3.02107 14.5017C3.03289 14.4543 3.04471 14.407 3.05652 14.3596C3.06834 14.3123 3.08016 14.261 3.09591 14.2137C3.10773 14.1663 3.11954 14.1229 3.1353 14.0756C3.15106 14.0243 3.16287 13.973 3.17863 13.9217C3.19044 13.8784 3.2062 13.831 3.21801 13.7876C3.23377 13.7403 3.24953 13.689 3.26528 13.6377C3.28104 13.5904 3.29679 13.543 3.31255 13.4996C3.3283 13.4523 3.34406 13.405 3.36375 13.3537C3.37951 13.3103 3.39526 13.2629 3.41102 13.2156C3.43071 13.1643 3.45041 13.113 3.4701 13.0617C3.48585 13.0184 3.50161 12.9789 3.51737 12.9355C3.53706 12.8842 3.56069 12.8329 3.58039 12.7817C3.59614 12.7383 3.61584 12.6988 3.63159 12.6554C3.65522 12.6041 3.67492 12.5528 3.69855 12.5016C3.71825 12.4621 3.734 12.4227 3.75369 12.3793C3.78127 12.324 3.8049 12.2688 3.83247 12.2136C3.85216 12.1781 3.86792 12.1386 3.88368 12.1031C3.91125 12.0439 3.94276 11.9848 3.97033 11.9256C3.98608 11.894 4.00184 11.8585 4.02153 11.827C4.05304 11.7639 4.08849 11.7007 4.12394 11.6416C4.1397 11.6139 4.15545 11.5863 4.17121 11.5548C4.22241 11.464 4.27362 11.3733 4.32482 11.2865C4.37603 11.1997 4.43117 11.1129 4.48631 11.0262C4.50601 10.9946 4.5257 10.967 4.5454 10.9354C4.58085 10.8802 4.6163 10.825 4.65175 10.7697C4.67538 10.7342 4.69901 10.7027 4.72264 10.6672C4.75809 10.6159 4.7896 10.5646 4.82505 10.5173C4.84869 10.4857 4.87232 10.4502 4.89595 10.4186C4.9314 10.3713 4.96685 10.32 5.0023 10.2727C5.02987 10.2372 5.0535 10.2056 5.08108 10.1701C5.11653 10.1267 5.14804 10.0794 5.18349 10.036C5.21106 10.0005 5.23863 9.96496 5.27014 9.92945C5.30559 9.88606 5.3371 9.84661 5.37255 9.80322C5.40012 9.76771 5.43163 9.73221 5.4592 9.6967C5.49465 9.65725 5.5301 9.6178 5.56161 9.57441C5.59312 9.5389 5.62463 9.5034 5.65614 9.46789C5.69159 9.42844 5.72704 9.38899 5.76249 9.35349C5.794 9.31799 5.82551 9.28248 5.85702 9.25092C5.89247 9.21147 5.92792 9.17597 5.96731 9.13652C5.99882 9.10496 6.03033 9.06945 6.06578 9.03789C6.10517 8.99844 6.14062 8.96294 6.18001 8.92349C6.21152 8.89193 6.24303 8.86037 6.27454 8.82881C6.31393 8.78936 6.35725 8.74991 6.40058 8.71046C6.43209 8.68285 6.45966 8.65523 6.49117 8.62762C6.5345 8.58422 6.58177 8.54478 6.62903 8.50533C6.6566 8.48166 6.68418 8.45404 6.71569 8.43037C6.77083 8.38303 6.82597 8.33569 6.88112 8.2923C6.92444 8.25679 6.96777 8.22129 7.0111 8.18578C7.0623 8.14633 7.11351 8.10294 7.16471 8.06349C7.20016 8.03588 7.23955 8.00826 7.27894 7.9767C7.31833 7.94514 7.35771 7.91358 7.40104 7.88597C7.44043 7.85835 7.47982 7.83074 7.51527 7.80312C7.55465 7.77551 7.59798 7.74395 7.63737 7.71633C7.67676 7.68872 7.72009 7.66111 7.75947 7.63349C7.79886 7.60588 7.83825 7.57826 7.87764 7.55459C7.92096 7.52698 7.96429 7.49936 8.00368 7.47175C8.04307 7.44808 8.08246 7.42046 8.12185 7.39679C8.16517 7.36918 8.2085 7.34156 8.25183 7.31395C8.29121 7.29028 8.3306 7.26661 8.36999 7.24294C8.41332 7.21533 8.46058 7.19166 8.50391 7.16404C8.5433 7.14037 8.58269 7.12065 8.61814 7.09698C8.6654 7.06936 8.71267 7.04569 8.75993 7.01808C8.79538 6.99835 8.83083 6.97863 8.86628 6.9589C8.91749 6.93129 8.96869 6.90367 9.01989 6.87606C9.0514 6.86028 9.08685 6.84055 9.11837 6.82477C9.17351 6.79716 9.22471 6.76955 9.27986 6.74588C9.31137 6.7301 9.34288 6.71432 9.37439 6.69854C9.42953 6.67092 9.48468 6.64725 9.53982 6.61964C9.56739 6.6078 9.5989 6.59202 9.63041 6.58019C9.68949 6.55257 9.74858 6.5289 9.80766 6.50129L9.87068 6.47367C10.1976 6.3356 10.5285 6.21331 10.8633 6.10285H10.8711C10.946 6.07523 11.0208 6.05156 11.0917 6.03184L11.1508 6.01211C11.2217 5.99239 11.2926 5.96872 11.3635 5.95294L11.4265 5.93322C11.4974 5.91349 11.5683 5.89377 11.6392 5.87799L11.7062 5.85826C11.7731 5.84248 11.844 5.8267 11.911 5.81092L11.9898 5.7912C12.0607 5.77542 12.1316 5.75964 12.1985 5.74386L12.2694 5.72808C12.3403 5.7123 12.4152 5.70046 12.4861 5.68468L12.5491 5.67285C12.6239 5.66101 12.7027 5.64523 12.7775 5.6334L12.8209 5.62551C12.9036 5.61367 12.9863 5.60184 13.0651 5.59H13.0926C13.1793 5.57422 13.2659 5.56239 13.3565 5.5545C14.1128 5.46771 14.8809 5.44404 15.6529 5.49138H15.6686C15.7592 5.49927 15.8537 5.50322 15.9483 5.51111H15.964C16.0586 5.519 16.1492 5.52689 16.2437 5.53872H16.2594C16.354 5.55056 16.4446 5.55844 16.5391 5.57028H16.5509C17.9098 5.73991 19.2687 6.12257 20.5764 6.72221L13.2935 19.354C13.2738 19.3895 13.262 19.425 13.2581 19.4605L9.36257 26.2182L8.35423 27.9658C6.98353 26.9835 5.84127 25.7961 4.94716 24.4784C4.89201 24.3956 4.84081 24.3167 4.7896 24.2339L4.78173 24.222C4.73052 24.1431 4.67932 24.0642 4.63205 23.9853L4.62023 23.9695C4.57297 23.8906 4.5257 23.8117 4.47844 23.7289L4.47056 23.7131C4.42329 23.6342 4.37603 23.5514 4.3327 23.4725L4.32088 23.4567C4.27756 23.3778 4.23423 23.295 4.1909 23.2121L4.17909 23.1924C4.13576 23.1095 4.09243 23.0306 4.05304 22.9478L4.04517 22.932C4.00184 22.8492 3.96245 22.7663 3.92306 22.6795V22.6717C3.58826 21.9734 3.32436 21.2515 3.12348 20.5138V20.494C3.09591 20.4151 3.07622 20.3402 3.05652 20.2613L3.04077 20.2061C3.02501 20.1311 3.00532 20.0601 2.98956 19.9851L2.97381 19.9181C2.95805 19.8471 2.9423 19.78 2.93048 19.709V19.7327ZM26.9691 24.8019C26.9179 24.8887 26.8627 24.9795 26.8076 25.0623C26.7879 25.0939 26.7682 25.1254 26.7485 25.153C26.7131 25.2083 26.6776 25.2635 26.6422 25.3148C26.6185 25.3503 26.591 25.3897 26.5673 25.4252C26.5358 25.4726 26.5043 25.5199 26.4689 25.5672C26.4413 25.6028 26.4177 25.6383 26.3901 25.6777C26.3586 25.725 26.3231 25.7684 26.2877 25.8158C26.2601 25.8513 26.2325 25.8868 26.2089 25.9223C26.1735 25.9657 26.1419 26.013 26.1065 26.0564C26.0789 26.0919 26.0513 26.1274 26.0198 26.1629C25.9844 26.2063 25.9529 26.2458 25.9174 26.2892C25.8859 26.3247 25.8583 26.3602 25.8268 26.3957C25.7914 26.4351 25.7559 26.4785 25.7205 26.518C25.689 26.5495 25.6614 26.5851 25.6338 26.6166C25.5944 26.66 25.559 26.6995 25.5196 26.7389C25.4881 26.7705 25.4605 26.802 25.429 26.8336C25.3896 26.873 25.3502 26.9164 25.3109 26.9559C25.2793 26.9874 25.2518 27.019 25.2203 27.0506C25.1809 27.09 25.1415 27.1295 25.106 27.165C25.0745 27.1965 25.043 27.2281 25.0115 27.2596C24.9721 27.2951 24.9327 27.3346 24.8933 27.3701C24.8618 27.4017 24.8264 27.4293 24.7949 27.4608C24.7515 27.5003 24.7122 27.5358 24.6688 27.5752C24.6373 27.6028 24.6058 27.6305 24.5743 27.6581C24.5152 27.7094 24.4561 27.7567 24.397 27.808C24.3813 27.8198 24.3655 27.8356 24.3498 27.8474C24.2749 27.9106 24.2001 27.9697 24.1213 28.0289C24.0898 28.0526 24.0544 28.0802 24.0229 28.1039C23.9795 28.1354 23.9362 28.1709 23.8929 28.2025C23.8535 28.234 23.8141 28.2617 23.7708 28.2893C23.7314 28.3169 23.692 28.3445 23.6526 28.3721C23.6132 28.3997 23.5738 28.4273 23.5344 28.455C23.4951 28.4826 23.4517 28.5102 23.4123 28.5378C23.3729 28.5654 23.3296 28.593 23.2863 28.6206C23.2469 28.6483 23.2075 28.6719 23.1681 28.6995C23.1248 28.7272 23.0815 28.7548 23.0382 28.7784C22.9988 28.8021 22.9594 28.8258 22.916 28.8534C22.8727 28.881 22.8294 28.9047 22.7821 28.9323C22.7427 28.956 22.7034 28.9796 22.664 28.9994C22.6206 29.027 22.5734 29.0506 22.53 29.0743C22.4907 29.094 22.4513 29.1177 22.4119 29.1374C22.3646 29.1611 22.3173 29.1887 22.2701 29.2124C22.2307 29.2321 22.1952 29.2518 22.1559 29.2716C22.1047 29.2952 22.0574 29.3228 22.0062 29.3465C21.9707 29.3623 21.9392 29.3781 21.9038 29.3939C21.8486 29.4215 21.7935 29.4451 21.7383 29.4728C21.7108 29.4885 21.6793 29.5004 21.6477 29.5122C21.5887 29.5398 21.5296 29.5635 21.4705 29.5911C21.4429 29.6029 21.4193 29.6148 21.3917 29.6227C21.3287 29.6503 21.2617 29.6779 21.1987 29.7016C20.8639 29.8357 20.5212 29.954 20.1746 30.0606L20.1234 30.0763C20.0525 30.0961 19.9856 30.1158 19.9147 30.1355L19.8438 30.1552C19.7729 30.175 19.7059 30.1907 19.635 30.2105L19.5641 30.2302C19.4932 30.2499 19.4223 30.2657 19.3554 30.2815L19.2845 30.2973C19.2136 30.313 19.1387 30.3288 19.0678 30.3446L19.0048 30.3564C18.93 30.3722 18.8551 30.384 18.7803 30.3998L18.7173 30.4117C18.6424 30.4235 18.5676 30.4393 18.4888 30.4511L18.4376 30.459C18.3588 30.4708 18.2761 30.4827 18.1973 30.4945H18.1658C18.0792 30.5103 17.9965 30.5221 17.9098 30.53H17.8901C17.0433 30.6286 16.1767 30.6405 15.3102 30.5695H15.3023C15.2078 30.5616 15.1132 30.5537 15.0187 30.5418H15.0108C14.9163 30.53 14.8218 30.5182 14.7233 30.5063H14.7154C13.4511 30.3446 12.1867 30.0053 10.9657 29.4767C10.8711 29.4373 10.7766 29.3939 10.6821 29.3505L13.2935 24.8217L13.3053 24.8019L22.9279 8.11083C24.3852 9.1523 25.5826 10.4265 26.4964 11.8428L26.5043 11.8506C26.5555 11.9295 26.6067 12.0084 26.654 12.0873L26.6658 12.1071C26.7131 12.186 26.7603 12.2609 26.8076 12.3398L26.8194 12.3635C26.8627 12.4424 26.91 12.5213 26.9533 12.5962L26.9652 12.6199C27.0085 12.6988 27.0518 12.7777 27.0951 12.8606L27.103 12.8763C27.1463 12.9592 27.1897 13.042 27.2291 13.1249L27.2369 13.1406C27.2803 13.2235 27.3196 13.3103 27.359 13.3931C27.6899 14.0953 27.9577 14.8212 28.1586 15.5628V15.5786C28.1862 15.6575 28.2059 15.7364 28.2256 15.8153L28.2413 15.8706C28.2571 15.9455 28.2768 16.0165 28.2925 16.0915L28.3083 16.1585C28.324 16.2295 28.3398 16.2966 28.3516 16.3676L28.3674 16.4505C28.3792 16.5175 28.3949 16.5846 28.4068 16.6517L28.4225 16.7384C28.4343 16.8055 28.4461 16.8686 28.454 16.9357L28.4698 17.0304C28.4777 17.0935 28.4895 17.1566 28.4974 17.2197C28.5013 17.2552 28.5052 17.2907 28.5092 17.3262C28.517 17.3894 28.5249 17.4485 28.5289 17.5117L28.5407 17.6182C28.5486 17.6813 28.5525 17.7444 28.5564 17.8075C28.5564 17.843 28.5604 17.8785 28.5643 17.914C28.5683 17.9772 28.5722 18.0363 28.5761 18.0995C28.5761 18.1389 28.5801 18.1744 28.584 18.2139C28.584 18.273 28.5879 18.3322 28.5919 18.3914C28.5919 18.4308 28.5919 18.4703 28.5919 18.5097C28.5919 18.5689 28.5919 18.6281 28.5958 18.6873C28.5958 18.7267 28.5958 18.7622 28.5958 18.7977C28.5958 18.8569 28.5958 18.9161 28.5958 18.9792C28.5958 19.0186 28.5958 19.0541 28.5958 19.0936C28.5958 19.1528 28.5958 19.2159 28.5919 19.2751C28.5919 19.3066 28.5919 19.3382 28.5879 19.3737C28.5761 19.5985 28.5604 19.8234 28.5367 20.0483C28.5367 20.0798 28.5289 20.1153 28.5249 20.1469C28.521 20.1942 28.5131 20.2455 28.5052 20.2968C28.5013 20.3441 28.4934 20.3954 28.4855 20.4428C28.4777 20.4901 28.4698 20.5414 28.4658 20.5887C28.458 20.6361 28.454 20.6834 28.4461 20.7347C28.4383 20.786 28.4304 20.8333 28.4186 20.8846C28.4107 20.9319 28.4028 20.9793 28.3949 21.0266C28.3871 21.0739 28.3752 21.1252 28.3674 21.1726C28.3595 21.2199 28.3477 21.2712 28.3359 21.3185C28.324 21.3659 28.3162 21.4132 28.3044 21.4606C28.2925 21.5079 28.2807 21.5592 28.2689 21.6065C28.2571 21.6539 28.2453 21.7012 28.2335 21.7485C28.2216 21.7959 28.2098 21.8472 28.1941 21.8945C28.1823 21.9418 28.1665 21.9892 28.1547 22.0365C28.1389 22.0839 28.1271 22.1351 28.1114 22.1825C28.0956 22.2298 28.0838 22.2732 28.068 22.3206C28.0523 22.3718 28.0365 22.4231 28.0208 22.4744C28.005 22.5178 27.9932 22.5612 27.9774 22.6046C27.9617 22.6559 27.942 22.7072 27.9223 22.7584C27.9065 22.8018 27.8908 22.8452 27.875 22.8886C27.8553 22.9399 27.8356 22.9912 27.8159 23.0425C27.8002 23.0859 27.7844 23.1293 27.7647 23.1727C27.745 23.2239 27.7214 23.2752 27.7017 23.3265C27.686 23.3699 27.6663 23.4094 27.6505 23.4528C27.6308 23.504 27.6072 23.5553 27.5835 23.6027C27.5639 23.6461 27.5442 23.6855 27.5284 23.7289C27.5048 23.7802 27.4811 23.8315 27.4575 23.8828C27.4378 23.9222 27.4181 23.9656 27.3984 24.005C27.3708 24.0603 27.3433 24.1116 27.3157 24.1628C27.296 24.2023 27.2763 24.2378 27.2566 24.2773C27.2251 24.3364 27.1936 24.3956 27.1621 24.4548C27.1463 24.4863 27.1266 24.5179 27.1109 24.5495C27.0597 24.6402 27.0085 24.727 26.9573 24.8177L26.9691 24.8019ZM9.02777 32.25C9.13806 32.3013 9.24835 32.3526 9.35863 32.3999L9.41378 32.4236C9.50043 32.463 9.58708 32.4985 9.67374 32.534L9.7919 32.5814C9.86674 32.6129 9.94552 32.6406 10.0204 32.6721C10.0676 32.6918 10.1149 32.7076 10.1582 32.7273C10.2252 32.751 10.2921 32.7747 10.3591 32.8023C10.4142 32.822 10.4694 32.8417 10.5245 32.8615C10.5875 32.8851 10.6506 32.9049 10.7175 32.9246C10.7805 32.9443 10.8475 32.968 10.9105 32.9877L11.0602 33.035C11.139 33.0587 11.2178 33.0824 11.2926 33.1061C11.3359 33.1179 11.3832 33.1337 11.4265 33.1455C11.5132 33.1692 11.5998 33.1928 11.6865 33.2165L11.781 33.2402C11.8755 33.2639 11.9661 33.2875 12.0607 33.3073L12.1591 33.3309C12.2576 33.3506 12.3521 33.3743 12.4506 33.394L12.5294 33.4098C12.6357 33.4295 12.7381 33.4493 12.8445 33.469L12.9075 33.4808C13.0178 33.5006 13.132 33.5203 13.2462 33.5361L13.2856 33.5439C13.3999 33.5597 13.518 33.5755 13.6323 33.5913H13.6677C13.7859 33.611 13.908 33.6228 14.0301 33.6386H14.0616C14.1876 33.6544 14.3097 33.6662 14.4358 33.6741H14.4397H14.4476C14.5736 33.682 14.7036 33.6939 14.8297 33.6978H14.8454C14.9754 33.7057 15.1054 33.7096 15.2354 33.7136H15.2472C15.3771 33.7136 15.5111 33.7175 15.645 33.7175C15.7592 33.7175 15.8774 33.7175 15.9916 33.7136H16.1058L16.098 33.7175V33.7254L16.0901 33.7333L16.0861 33.7412L16.0783 33.7491L16.0704 33.757V33.7649H16.0625L16.0546 33.7728V33.7806L16.0467 33.7885L16.0428 33.7964L16.0349 33.8043L16.0271 33.8122V33.8201H16.0192L16.0113 33.828V33.8359L16.0034 33.8438L15.9995 33.8517V33.8595H15.9916L15.9837 33.8674H15.9798V33.8753L15.9719 33.8832L15.968 33.8911L15.9601 33.899L15.9562 33.9069V33.9148H15.9483V33.9227L15.9404 33.9266L15.9365 33.9384L15.9325 33.9463L15.9246 33.9542L15.9207 33.9621V33.97H15.9128L15.905 33.9779V33.9858L15.8971 33.9937L15.8931 34.0016L15.8853 34.0095V34.0173L15.8734 34.0252L15.8695 34.0371V34.045L15.8616 34.0528L15.8577 34.0607V34.0686H15.8537L15.8459 34.0765V34.0844H15.838V34.0923H15.8301L15.8222 34.1081L15.8183 34.116V34.1239H15.8144L15.8065 34.1317V34.1396V34.1475H15.7986V34.1554L15.7907 34.1633L15.7868 34.1712V34.1791H15.7828V34.187L15.775 34.1909L15.7671 34.2067L15.7632 34.2146V34.2225H15.7592L13.4353 38.2542L13.4235 38.2739L13.2856 38.5146C13.1714 38.7118 13.0414 38.8933 12.8957 39.059C12.746 39.2286 12.5845 39.3785 12.4073 39.5127C12.23 39.6507 12.037 39.7651 11.8362 39.8638C11.6353 39.9624 11.4226 40.0413 11.2059 40.1005C10.9893 40.1596 10.7687 40.1951 10.5442 40.2109C10.3236 40.2267 10.0991 40.2188 9.87462 40.1912C9.67768 40.1675 9.48074 40.1241 9.29167 40.061C9.11443 40.0058 8.94112 39.9348 8.77569 39.848L8.74024 39.8322L8.62207 39.7651C8.42513 39.6507 8.24395 39.5205 8.07852 39.3746C7.90915 39.2247 7.75553 39.0629 7.62555 38.8854C7.48769 38.7079 7.36953 38.5146 7.27106 38.3134C7.17259 38.1122 7.09381 37.8992 7.03473 37.6822C6.97565 37.4652 6.9402 37.2443 6.92444 37.0195C6.90869 36.7985 6.91657 36.5737 6.94414 36.3488C6.97171 36.1279 7.02291 35.9109 7.09381 35.6979C7.16471 35.4888 7.2553 35.2876 7.36953 35.0904L9.05141 32.1711H9.05534L9.02777 32.25ZM15.645 2.37881C7.00322 2.37881 0 9.39689 0 18.0482C0 18.1705 0 18.2928 0.00393882 18.4111V18.4821C0.00787764 18.6005 0.0118165 18.7149 0.0196941 18.8332V18.8924C0.0275717 19.0028 0.0354494 19.1133 0.043327 19.2238V19.2672C0.0551435 19.3816 0.0669599 19.4999 0.0787764 19.6143L0.086654 19.6893C0.0984705 19.8037 0.110287 19.9181 0.126042 20.0325L0.13392 20.0798C0.145736 20.1863 0.161492 20.2889 0.177247 20.3954L0.185124 20.4585C0.20088 20.569 0.220574 20.6795 0.240268 20.7899L0.256023 20.8688C0.275717 20.9793 0.295411 21.0937 0.319044 21.2041L0.326922 21.2357C0.346616 21.3383 0.370249 21.4408 0.393882 21.5434L0.413576 21.6223C0.437209 21.7288 0.464781 21.8353 0.492352 21.9379L0.512046 22.0207C0.535679 22.1154 0.559312 22.2062 0.586884 22.2969L0.602639 22.3561C0.63415 22.4586 0.661722 22.5612 0.693232 22.6638L0.720804 22.7545C0.752314 22.8531 0.783825 22.9557 0.819274 23.0543L0.846846 23.1372C0.874418 23.22 0.90199 23.2989 0.9335 23.3817C0.945316 23.4094 0.953194 23.4409 0.965011 23.4685C1.00046 23.5632 1.03591 23.6539 1.07136 23.7486C1.08711 23.7841 1.09893 23.8236 1.11469 23.8591C1.15014 23.9419 1.18165 24.0248 1.2171 24.1076C1.23285 24.1431 1.24861 24.1786 1.26436 24.2181C1.29587 24.2891 1.32738 24.364 1.35889 24.435C1.37465 24.4706 1.3904 24.5061 1.40616 24.5455C1.44555 24.6323 1.48493 24.7151 1.52432 24.8019C1.54402 24.8414 1.56371 24.8808 1.58341 24.9242C1.61492 24.9873 1.64643 25.0505 1.67794 25.1136C1.70157 25.1609 1.72914 25.2122 1.75277 25.2595C1.78822 25.3266 1.82367 25.3897 1.85518 25.4568C1.87882 25.5002 1.89851 25.5396 1.92214 25.583C1.96547 25.6619 2.0088 25.7408 2.05606 25.8197C2.0797 25.8592 2.10333 25.8986 2.12696 25.942C2.15847 25.9933 2.18998 26.0446 2.21756 26.0998C2.253 26.1551 2.28451 26.2142 2.31996 26.2695C2.35541 26.3247 2.39086 26.3839 2.42631 26.4391C2.45782 26.4864 2.48933 26.5338 2.51691 26.5811C2.54842 26.6284 2.57993 26.6758 2.61144 26.7231C2.65476 26.7902 2.69809 26.8533 2.74536 26.9204C2.77293 26.9598 2.8005 27.0032 2.82807 27.0427C2.85958 27.09 2.89503 27.1373 2.92654 27.1847C2.97381 27.2478 3.02107 27.3109 3.0644 27.378C3.09985 27.4253 3.1353 27.4727 3.17469 27.5239C3.20226 27.5595 3.22589 27.591 3.25346 27.6265C3.31255 27.7015 3.37163 27.7804 3.43465 27.8553C3.45828 27.8869 3.48585 27.9184 3.50949 27.95C3.54888 27.9973 3.58826 28.0486 3.62765 28.096L3.67492 28.1512C3.74976 28.2419 3.82853 28.3327 3.90731 28.4195L3.97033 28.4905C4.04517 28.5733 4.12394 28.6601 4.19878 28.7429C4.21848 28.7627 4.23817 28.7824 4.25392 28.8021C4.30119 28.8534 4.34846 28.9007 4.39572 28.952L4.43117 28.9875C4.51783 29.0783 4.60842 29.169 4.69901 29.2558L4.75415 29.311C4.90777 29.4609 5.06138 29.6029 5.21894 29.745L5.2662 29.7884C5.36073 29.8712 5.45526 29.954 5.55373 30.0369L5.59706 30.0724C5.76249 30.2144 5.93186 30.3485 6.10517 30.4827L6.14456 30.5142C6.25484 30.601 6.36907 30.6839 6.4833 30.7667L6.49117 30.7746C6.55419 30.818 6.61328 30.8653 6.6763 30.9087L4.99442 33.828L4.98261 33.8477C4.78567 34.1949 4.62417 34.5539 4.49813 34.9207C4.36815 35.3034 4.27756 35.694 4.22635 36.0845C4.17515 36.4869 4.16333 36.8893 4.1909 37.2877C4.21847 37.6901 4.28544 38.0885 4.38784 38.4791C4.49025 38.8696 4.63205 39.2484 4.81324 39.6073C4.99048 39.9663 5.19924 40.3095 5.44739 40.6291C5.68765 40.9447 5.95943 41.2366 6.26272 41.5009C6.55419 41.7573 6.8693 41.9862 7.21592 42.1873L7.23955 42.1992C7.59404 42.4043 7.95641 42.5661 8.3306 42.6962C8.71267 42.8264 9.10261 42.9172 9.49255 42.9684C9.89431 43.0197 10.2961 43.0316 10.6939 43.0079C11.0957 42.9803 11.4935 42.9132 11.8834 42.8106C12.2615 42.7081 12.6318 42.57 12.9863 42.4004C13.3368 42.2307 13.6716 42.0256 13.9867 41.7889C14.294 41.5561 14.5854 41.2918 14.8493 40.9999C15.1054 40.7159 15.3417 40.4003 15.5465 40.0571L15.582 40.0018L15.6017 39.9624L18.0752 35.6703L18.0871 35.6506C18.1973 35.4612 18.3234 35.2876 18.4652 35.1259C18.6149 34.9562 18.7764 34.8024 18.9536 34.6722C19.1308 34.5341 19.3238 34.4197 19.5247 34.3211C19.7256 34.2225 19.9383 34.1436 20.1549 34.0844C20.3716 34.0252 20.5921 33.9897 20.8167 33.9739C21.0372 33.9582 21.2617 33.9661 21.4863 33.9937C21.7029 34.0213 21.9235 34.0726 22.1362 34.1436C22.3449 34.2146 22.5458 34.3053 22.7427 34.4197C22.9397 34.5341 23.1209 34.6643 23.2863 34.8103C23.4557 34.9602 23.6093 35.1219 23.7393 35.2995C23.8771 35.477 23.9953 35.6703 24.0898 35.8715C24.1883 36.0727 24.2671 36.2857 24.3261 36.5027C24.3852 36.7196 24.4207 36.9406 24.4364 37.1654C24.4522 37.3863 24.4443 37.6112 24.4167 37.8361C24.3892 38.053 24.338 38.2739 24.2671 38.487C24.1962 38.6961 24.1056 38.8973 23.9913 39.0945L21.8959 42.7278C21.8959 42.7278 21.8801 42.7673 21.8723 42.787C21.8407 42.9093 21.9116 43.0118 22.0377 43.0118H24.6767C24.7909 43.0118 24.8933 42.9527 24.9524 42.854L26.3389 40.4476C26.5437 40.0926 26.7052 39.7296 26.8352 39.3549C26.9652 38.9722 27.0557 38.5817 27.107 38.1872C27.1582 37.7887 27.17 37.3824 27.1463 36.9839C27.1188 36.5816 27.0518 36.1831 26.9494 35.7926C26.847 35.402 26.7052 35.0233 26.5279 34.6643C26.3507 34.3053 26.1419 33.9621 25.8938 33.6426C25.6535 33.327 25.3817 33.035 25.0785 32.7668C24.783 32.5064 24.4561 32.2737 24.1056 32.0685L24.0938 32.0606H24.0898L24.0859 32.0528H24.0741V32.0449L24.0622 32.037H24.0583L24.0504 32.0291H24.0386V32.0212L24.0268 32.0133L24.0189 32.0054H24.011V31.9975L23.9992 31.9896L23.9913 31.9817H23.9835V31.9778L23.9717 31.9699L23.9638 31.962H23.9559V31.9541H23.9441V31.9462H23.9362L23.9283 31.9384H23.9244L23.9126 31.9305L23.9008 31.9226H23.8929L23.8889 31.9186L23.8771 31.9107H23.8653L23.8614 31.9028H23.8535L23.8417 31.895L23.8299 31.8871H23.8259L23.818 31.8792H23.8062V31.8752L23.7944 31.8673H23.7905L23.7826 31.8634H23.7747V31.8595L23.7629 31.8516L23.755 31.8476H23.7471V31.8437H23.7353V31.8358H23.7274L23.7196 31.8279L23.7078 31.82L23.6959 31.8161H23.6881L23.6841 31.8121H23.6723V31.8042H23.6605L23.6526 31.7963H23.6487L23.6369 31.7884L23.625 31.7845H23.6211L23.6132 31.7806H23.6014V31.7766H23.5896L23.5856 31.7687H23.5778L23.566 31.7608L23.5541 31.7569H23.5502L23.5423 31.7529H23.5344V31.749H23.5226V31.7411H23.5147L23.5069 31.7332L23.4951 31.7253L23.4872 31.7214H23.4793V31.7174H23.4675V31.7095H23.4596L23.4517 31.7017H23.4478L23.436 31.6938L23.4242 31.6898C23.4911 31.6504 23.5581 31.6149 23.6211 31.5754L23.6762 31.5399C23.8771 31.4216 24.0701 31.2993 24.2671 31.173L24.3301 31.1336C24.5191 31.0073 24.7082 30.8772 24.8933 30.743L24.9564 30.6957C25.1375 30.5616 25.3187 30.4235 25.492 30.2815L25.559 30.2262C25.7323 30.0882 25.9017 29.9422 26.0671 29.7962L26.138 29.7331C26.1892 29.6858 26.2404 29.6424 26.2916 29.595L26.3271 29.5595C26.4255 29.4688 26.524 29.3781 26.6185 29.2834L26.6894 29.2124C26.7367 29.165 26.7879 29.1177 26.8352 29.0664L26.8903 29.0072C26.973 28.9244 27.0557 28.8376 27.1345 28.7508C27.1621 28.7193 27.1897 28.6917 27.2172 28.6601C27.2606 28.6128 27.3039 28.5654 27.3472 28.5181C27.3748 28.4865 27.4024 28.455 27.4299 28.4234C27.4969 28.3445 27.5639 28.2695 27.6308 28.1906C27.6623 28.1551 27.6938 28.1196 27.7214 28.0802C27.7569 28.0368 27.7962 27.9895 27.8317 27.9461C27.8671 27.9027 27.8987 27.8632 27.9341 27.8198C27.9892 27.7528 28.0405 27.6817 28.0956 27.6147C28.1271 27.5713 28.1626 27.5279 28.1941 27.4845C28.2256 27.4411 28.261 27.3938 28.2925 27.3504C28.324 27.307 28.3595 27.2596 28.391 27.2162C28.4383 27.1492 28.4895 27.0782 28.5367 27.0111C28.5683 26.9638 28.6037 26.9164 28.6392 26.8651C28.6667 26.8217 28.6982 26.7783 28.7258 26.735C28.7613 26.6837 28.7928 26.6324 28.8282 26.5811C28.8676 26.5219 28.907 26.4628 28.9424 26.3996C28.9779 26.3405 29.0173 26.2813 29.0527 26.2221C29.0803 26.1787 29.1039 26.1393 29.1276 26.0959C29.163 26.0367 29.1985 25.9775 29.2339 25.9184C29.2575 25.8789 29.2812 25.8395 29.3009 25.8C29.3481 25.7211 29.3915 25.6422 29.4348 25.5594C29.4545 25.5199 29.4781 25.4805 29.4978 25.441C29.5333 25.3739 29.5687 25.3108 29.6002 25.2438C29.616 25.2122 29.6317 25.1806 29.6475 25.1491C29.6948 25.0584 29.7381 24.9676 29.7814 24.8808C29.8011 24.8414 29.8169 24.8019 29.8366 24.7664C29.8681 24.6954 29.9035 24.6284 29.935 24.5573C29.9468 24.5258 29.9626 24.4982 29.9784 24.4666C30.0217 24.3719 30.0611 24.2773 30.1044 24.1826L30.1477 24.0761C30.1792 24.0011 30.2068 23.9301 30.2383 23.8551C30.2501 23.8236 30.2619 23.792 30.2777 23.7605C30.3171 23.6618 30.3525 23.5632 30.3919 23.4606C30.4037 23.4291 30.4156 23.4015 30.4234 23.3699C30.451 23.291 30.4786 23.2121 30.5062 23.1293C30.518 23.0977 30.5258 23.0701 30.5377 23.0385C30.5731 22.936 30.6046 22.8334 30.6361 22.7269C30.644 22.6993 30.6519 22.6717 30.6598 22.644C30.6873 22.5612 30.711 22.4744 30.7346 22.3876C30.7425 22.3561 30.7543 22.3284 30.7622 22.2969C30.7897 22.1904 30.8213 22.0878 30.8488 21.9813L30.8685 21.9024C30.8922 21.8156 30.9118 21.7249 30.9315 21.6381L30.9512 21.5473C30.9749 21.4408 30.9985 21.3304 31.0221 21.2199C31.0261 21.1962 31.034 21.1686 31.0379 21.145C31.0576 21.0542 31.0733 20.9595 31.093 20.8688L31.1088 20.782C31.1285 20.6676 31.1482 20.5572 31.1639 20.4428L31.1718 20.3875C31.1876 20.2889 31.1994 20.1903 31.2151 20.0877L31.227 19.997C31.2427 19.8826 31.2545 19.7682 31.2663 19.6498V19.6064C31.2821 19.5039 31.29 19.3973 31.2979 19.2908L31.3057 19.2001C31.3136 19.0817 31.3215 18.9634 31.3294 18.849V18.8214C31.3372 18.7109 31.3412 18.5965 31.3412 18.4861V18.3993C31.3451 18.2809 31.3491 18.1586 31.3491 18.0363C31.3491 17.914 31.3491 17.7917 31.3451 17.6734V17.6024C31.3412 17.484 31.3372 17.3696 31.3294 17.2513V17.1921C31.3215 17.0817 31.3136 16.9712 31.3057 16.8607V16.8213C31.2939 16.7029 31.2821 16.5885 31.2703 16.4702L31.2624 16.3992C31.2506 16.2848 31.2388 16.1704 31.223 16.052L31.2151 16.0047C31.2033 15.8982 31.1876 15.7917 31.1718 15.6851L31.1639 15.626C31.1482 15.5155 31.1285 15.4011 31.1088 15.2906L31.093 15.2117C31.0733 15.1013 31.0536 14.9869 31.03 14.8764L31.0221 14.8449C31.0024 14.7423 30.9788 14.6397 30.9552 14.5372L30.9355 14.4583C30.9119 14.3517 30.8843 14.2452 30.8567 14.1427L30.837 14.0638C30.8134 13.9691 30.7858 13.8705 30.7582 13.7758L30.7464 13.7284C30.7149 13.6219 30.6834 13.5194 30.6519 13.4168L30.6243 13.3339C30.5928 13.2314 30.5574 13.1288 30.5258 13.0302L30.5022 12.9592C30.4707 12.8724 30.4431 12.7856 30.4116 12.7028L30.384 12.6239C30.3486 12.5292 30.3132 12.4306 30.2738 12.3359L30.2344 12.2333C30.1989 12.1426 30.1635 12.0558 30.1241 11.965C30.1123 11.9374 30.1005 11.9098 30.0886 11.8783C30.0571 11.7994 30.0217 11.7244 29.9862 11.6455L29.9429 11.5429C29.9035 11.4562 29.8641 11.3694 29.8208 11.2826C29.8011 11.2431 29.7853 11.2076 29.7657 11.1721C29.7302 11.1011 29.6987 11.0301 29.6632 10.963C29.6475 10.9275 29.6278 10.892 29.6081 10.8605C29.5687 10.7816 29.5254 10.7066 29.486 10.6277C29.4663 10.5883 29.4466 10.5528 29.4269 10.5173C29.3836 10.4344 29.3363 10.3516 29.2891 10.2727C29.2694 10.2372 29.2457 10.2017 29.226 10.1662C29.1906 10.107 29.1591 10.0478 29.1236 9.99257C29.1039 9.95707 29.0803 9.92156 29.0606 9.88606C29.0133 9.8111 28.9661 9.73221 28.9188 9.65725C28.8912 9.61386 28.8637 9.57046 28.8361 9.52707C28.8006 9.47184 28.7613 9.41266 28.7258 9.35744C28.6904 9.30221 28.651 9.24698 28.6155 9.19175C28.584 9.14441 28.5486 9.09707 28.517 9.04973C28.4855 9.00634 28.454 8.96294 28.4265 8.91955C28.3792 8.85248 28.328 8.78542 28.2807 8.71835C28.2492 8.67496 28.2138 8.63156 28.1823 8.58817C28.1507 8.54478 28.1192 8.50533 28.0877 8.46193C28.0365 8.39487 27.9853 8.33175 27.9341 8.26468C27.9026 8.22523 27.8711 8.18578 27.8396 8.14633C27.8041 8.10294 27.7687 8.05954 27.7332 8.01615C27.6978 7.97276 27.6584 7.92936 27.6229 7.88597C27.5678 7.82285 27.5126 7.75578 27.4575 7.69266L27.3787 7.60193C27.3157 7.53092 27.2487 7.45991 27.1857 7.3889C27.1582 7.35734 27.1266 7.32578 27.0991 7.29422C27.0557 7.25083 27.0124 7.20349 26.9691 7.1601C26.9455 7.13643 26.9218 7.11276 26.8982 7.08514C26.8234 7.00624 26.7446 6.93129 26.6697 6.85633L26.5949 6.78533C26.5082 6.69854 26.4177 6.61569 26.3271 6.53285L26.2916 6.49734C26.2404 6.45 26.1931 6.40661 26.1419 6.35927L26.0829 6.30799C25.9962 6.22909 25.9056 6.15413 25.815 6.07523L25.7559 6.02395C25.5944 5.88588 25.429 5.75569 25.2596 5.62551L25.2045 5.58211C25.0982 5.49927 24.9879 5.42037 24.8815 5.34147L24.8658 5.32964C24.8067 5.28624 24.7437 5.24285 24.6806 5.19945L24.9879 4.66689L26.8076 1.50698C26.8943 1.35707 26.8431 1.15982 26.6934 1.07303L25.7953 0.552298L24.8973 0.0315643C24.7476 -0.0552247 24.5507 -0.00394024 24.464 0.145968L24.0662 0.84028C24.0386 0.86395 24.011 0.891564 23.9913 0.927069L22.3173 3.83056C22.1007 3.72799 21.8841 3.63331 21.6635 3.54257L21.6202 3.52285C21.5138 3.47945 21.4114 3.44 21.3051 3.39661L21.2302 3.369C21.1475 3.33744 21.0648 3.30588 20.9821 3.27826C20.9388 3.26248 20.8954 3.2467 20.8521 3.23092C20.7773 3.20331 20.6985 3.17964 20.6237 3.15202C20.5685 3.1323 20.5134 3.11652 20.4622 3.10074C20.4031 3.08101 20.344 3.06523 20.2849 3.04551C20.218 3.02578 20.151 3.00606 20.084 2.98633C20.0289 2.97056 19.9738 2.95478 19.9186 2.939C19.8477 2.91927 19.7768 2.89955 19.702 2.87982C19.6547 2.86799 19.6114 2.85615 19.5641 2.84432C19.4814 2.82459 19.3987 2.80092 19.312 2.78514C19.2726 2.77725 19.2293 2.76542 19.1899 2.75753C19.0993 2.7378 19.0127 2.71808 18.9221 2.69835L18.8236 2.67863C18.7212 2.6589 18.6227 2.63918 18.5203 2.61945L18.4494 2.60762C18.3431 2.58789 18.2367 2.57211 18.1264 2.55239L18.0713 2.5445C17.961 2.52872 17.8468 2.51294 17.7326 2.49716H17.6892C17.5711 2.47744 17.4529 2.46166 17.3347 2.44982H17.2993C17.1772 2.43404 17.0551 2.42221 16.929 2.41432H16.9133C16.7872 2.40248 16.6612 2.39459 16.5312 2.3867H16.5115C16.3815 2.37881 16.2555 2.37487 16.1255 2.37092H16.1098C15.9798 2.37092 15.8459 2.36698 15.7159 2.36698L15.645 2.37881Z" fill="#114171"/>
</g>
<defs>
<clipPath id="clip0_552_858">
<rect width="137" height="43" fill="white"/>
</clipPath>
</defs>
</svg>
