<svg width="33" height="42" viewBox="0 0 33 42" fill="none" xmlns="http://www.w3.org/2000/svg">
<path d="M31 3.72727H23.7273V1.90912C23.7273 1.40705 23.3203 1 22.8182 1H10.0909C9.58887 1 9.18182 1.40705 9.18182 1.90912V3.72727H1.90912C1.40705 3.72727 1 4.13432 1 4.63639V40.091C1 40.593 1.40705 41.0001 1.90912 41.0001H31C31.5021 41.0001 31.9091 40.593 31.9091 40.091V4.63639C31.9091 4.13432 31.5021 3.72727 31 3.72727ZM11.0001 2.81815H21.9092V5.54543H11.0001V2.81815ZM30.091 39.1818H2.81824V5.54543H9.18191V6.45455C9.18191 6.95662 9.58896 7.36367 10.091 7.36367H22.8183C23.3203 7.36367 23.7273 6.95662 23.7273 6.45455V5.54543H30.091V39.1818Z" fill="#114171" stroke="#114171" stroke-width="0.5"/>
<path d="M4.63672 10.091V35.5456C4.63672 36.0477 5.04376 36.4547 5.54584 36.4547H27.364C27.8661 36.4547 28.2732 36.0477 28.2732 35.5456V10.091C28.2732 9.58893 27.8661 9.18188 27.364 9.18188H5.54584C5.04376 9.18188 4.63672 9.58893 4.63672 10.091ZM6.45487 11H26.4549V34.6364H6.45487V11Z" fill="#114171" stroke="#114171" stroke-width="0.5"/>
<path d="M11.9089 21H13.7271V22.8182C13.7271 23.3203 14.1341 23.7273 14.6362 23.7273H18.2726C18.7747 23.7273 19.1817 23.3203 19.1817 22.8182V21H20.9999C21.5019 21 21.909 20.593 21.909 20.0909V16.4545C21.909 15.9524 21.5019 15.5454 20.9999 15.5454H19.1817V13.7272C19.1817 13.2252 18.7747 12.8181 18.2726 12.8181H14.6362C14.1341 12.8181 13.7271 13.2252 13.7271 13.7272V15.5454H11.9089C11.4068 15.5454 10.9998 15.9524 10.9998 16.4545V20.0909C10.9999 20.593 11.4068 21 11.9089 21ZM12.818 17.3636H14.6362C15.1383 17.3636 15.5453 16.9566 15.5453 16.4545V14.6364H17.3635V16.4545C17.3635 16.9566 17.7705 17.3636 18.2726 17.3636H20.0907V19.1818H18.2726C17.7705 19.1818 17.3635 19.5888 17.3635 20.0909V21.9091H15.5453V20.0909C15.5453 19.5888 15.1383 19.1818 14.6362 19.1818H12.818V17.3636ZM12.818 26.4546C12.316 26.4546 11.9089 26.8616 11.9089 27.3637C11.9089 27.8658 12.316 28.2727 12.818 28.2727H20.0907C20.5928 28.2727 20.9999 27.8657 20.9999 27.3636C20.9999 26.8615 20.5928 26.4545 20.0907 26.4545H12.818V26.4546ZM22.818 30.0909H10.0908C9.58869 30.0909 9.18164 30.4979 9.18164 31C9.18164 31.5021 9.58869 31.9091 10.0908 31.9091H22.818C23.3201 31.9091 23.7271 31.5021 23.7271 31C23.7271 30.4979 23.3201 30.0909 22.818 30.0909Z" fill="#114171" stroke="#114171" stroke-width="0.5"/>
</svg>
