<svg width="42" height="42" viewBox="0 0 42 42" fill="none" xmlns="http://www.w3.org/2000/svg">
<path d="M28.3099 17.4846C28.303 17.4641 28.2948 17.444 28.2853 17.4246C28.2742 17.3909 28.2606 17.3582 28.2446 17.3266C28.2305 17.3052 28.2151 17.2848 28.1986 17.2652C28.1812 17.2387 28.1618 17.2135 28.1406 17.1898C28.1208 17.1723 28.1001 17.1558 28.0786 17.1405C28.0574 17.1212 28.0352 17.1032 28.0119 17.0865L21.3453 13.085C21.2416 13.0227 21.1229 12.9898 21.002 12.9898C20.881 12.9898 20.7623 13.0227 20.6586 13.085L13.992 17.0865C13.9673 17.1027 13.9439 17.1207 13.922 17.1405C13.9002 17.1558 13.8793 17.1723 13.8593 17.1898C13.8385 17.2134 13.8194 17.2384 13.802 17.2645C13.7851 17.2842 13.7695 17.3049 13.7553 17.3266C13.7397 17.3573 13.7263 17.3892 13.7153 17.4219C13.7058 17.4426 13.6973 17.4637 13.69 17.4853C13.6744 17.5415 13.6666 17.5996 13.6666 17.658V24.3272C13.6667 24.4422 13.6965 24.5553 13.7531 24.6555C13.8098 24.7556 13.8914 24.8394 13.99 24.8987L20.6566 28.9002L20.664 28.9035L20.6713 28.9088C20.7063 28.927 20.7429 28.942 20.7806 28.9535C20.796 28.9589 20.8106 28.9675 20.8266 28.9722C20.9401 29.0033 21.0598 29.0033 21.1733 28.9722C21.1893 28.9675 21.204 28.9589 21.2193 28.9535C21.257 28.942 21.2936 28.9271 21.3286 28.9088L21.336 28.9035L21.3433 28.9002L28.0099 24.8987C28.1086 24.8394 28.1902 24.7556 28.2468 24.6555C28.3035 24.5553 28.3333 24.4422 28.3333 24.3272V17.658C28.3333 17.5994 28.3255 17.5411 28.3099 17.4846ZM21 14.4341L23.0373 15.6573L17.6666 18.8811L15.6293 17.658L21 14.4341ZM20.3333 27.1502L15 23.949V18.8358L20.3333 22.037V27.1502ZM21 20.8819L18.9626 19.6588L24.3333 16.4349L26.3706 17.658L21 20.8819ZM26.9999 23.9497L21.6666 27.1509V22.037L26.9999 18.8358V23.9497ZM21.5333 1.25193C21.4685 1.17315 21.3871 1.10971 21.2949 1.06615C21.2026 1.02259 21.1019 1 21 1C20.898 1 20.7973 1.02259 20.7051 1.06615C20.6128 1.10971 20.5314 1.17315 20.4666 1.25193L18.4666 3.91958L19.5333 4.71988L20.3333 3.65282V8.98813H21.6666V3.65282L22.4666 4.71988L23.5333 3.91958L21.5333 1.25193ZM22.4666 37.2653L21.6666 38.3323V32.997H20.3333V38.3323L19.5333 37.2653L18.4666 38.0656L20.4666 40.7332C20.5287 40.8161 20.6092 40.8833 20.7018 40.9296C20.7944 40.9759 20.8965 41 21 41C21.1035 41 21.2055 40.9759 21.2981 40.9296C21.3907 40.8833 21.4712 40.8161 21.5333 40.7332L23.5333 38.0656L22.4666 37.2653ZM20.3333 10.322H21.6666V11.6558H20.3333V10.322ZM20.3333 30.3294H21.6666V31.6632H20.3333V30.3294ZM8.99998 20.3257H3.66666L4.73333 19.5254L3.93333 18.4583L1.26667 20.459C1.18387 20.5212 1.11667 20.6017 1.07038 20.6943C1.0241 20.7869 1 20.889 1 20.9926C1 21.0961 1.0241 21.1982 1.07038 21.2908C1.11667 21.3834 1.18387 21.464 1.26667 21.5261L3.93333 23.5269L4.73333 22.4598L3.66666 21.6595H8.99998V20.3257ZM40.8666 20.5924C40.8287 20.5419 40.7838 20.497 40.7333 20.459L38.0666 18.4583L37.2666 19.5254L38.3333 20.3257H32.9999V21.6595H38.3333L37.2666 22.4598L38.0666 23.5269L40.7333 21.5261C40.8747 21.42 40.9682 21.262 40.9932 21.0869C41.0182 20.9118 40.9727 20.7339 40.8666 20.5924ZM10.3333 20.3257H11.6666V21.6595H10.3333V20.3257ZM30.3333 20.3257H31.6666V21.6595H30.3333V20.3257ZM12.986 12.0326L9.21532 8.26052L10.5346 8.44859L10.7233 7.1281L7.42399 6.65393C7.321 6.63864 7.21587 6.64768 7.11701 6.68035C7.01815 6.71301 6.92831 6.76839 6.85469 6.84203C6.78107 6.91568 6.72572 7.00555 6.69306 7.10445C6.66041 7.20335 6.65137 7.30852 6.66666 7.41154L7.13799 10.7121L8.45798 10.5234L8.26999 9.20354L12.0406 12.9756L12.986 12.0326ZM35.3319 34.5736L34.8606 31.2731L33.5393 31.4631L33.7273 32.7829L29.9566 29.0109L29.0139 29.9539L32.7846 33.726L31.4666 33.5366L31.2779 34.8571L34.5773 35.3286C34.6798 35.3433 34.7843 35.3339 34.8826 35.3012C34.9809 35.2685 35.0702 35.2133 35.1434 35.14C35.2167 35.0667 35.2718 34.9774 35.3046 34.8791C35.3373 34.7808 35.3467 34.6762 35.3319 34.5736ZM12.9862 13.9193L13.9291 12.9761L14.8718 13.9193L13.9291 14.8624L12.9862 13.9193ZM27.1286 28.0659L28.0714 27.1227L29.0142 28.0659L28.0714 29.0091L27.1286 28.0659ZM9.21265 33.7246L12.9833 29.9526L12.0433 29.0096L8.27265 32.7816L8.46065 31.4618L7.14065 31.2731L6.66666 34.5736C6.65193 34.6762 6.6613 34.7808 6.69402 34.8791C6.72674 34.9774 6.7819 35.0667 6.85515 35.14C6.92839 35.2133 7.01769 35.2685 7.11597 35.3012C7.21424 35.3339 7.31879 35.3433 7.42132 35.3286L10.7206 34.8571L10.532 33.5366L9.21265 33.7246ZM35.1419 6.84533C35.069 6.77163 34.9798 6.71613 34.8815 6.68334C34.7831 6.65055 34.6785 6.64139 34.5759 6.6566L31.2766 7.1281L31.4653 8.44859L32.7846 8.26052L29.0139 12.0326L29.9566 12.9756L33.7273 9.20354L33.5393 10.522L34.8593 10.7121L35.3306 7.41154C35.3453 7.30899 35.3359 7.20442 35.3032 7.10613C35.2704 7.00785 35.2152 6.91855 35.1419 6.84533ZM12.9867 28.0665L13.9296 27.1233L14.8724 28.0665L13.9296 29.0096L12.9867 28.0665ZM27.1288 13.9169L28.0715 12.9738L29.0144 13.9169L28.0715 14.8601L27.1288 13.9169Z" fill="#114171" stroke="#114171" stroke-width="0.5"/>
</svg>
