<svg width="42" height="42" viewBox="0 0 42 42" fill="none" xmlns="http://www.w3.org/2000/svg">
<path d="M1.03243 40.9676L1.03243 40.9676C0.851595 40.7867 0.75 40.5415 0.75 40.2857V37.4286C0.75 37.1728 0.851594 36.9276 1.03243 36.7467C1.21327 36.5659 1.45854 36.4643 1.71428 36.4643H2.17856V17.4287C2.17856 17.173 2.28016 16.9277 2.46099 16.7469C2.64183 16.566 2.8871 16.4644 3.14285 16.4644H8.8571C9.11284 16.4644 9.35811 16.566 9.53895 16.7469C9.71979 16.9277 9.82138 17.173 9.82138 17.4287V19.3215H11.5216C11.7453 17.1423 12.713 15.1037 14.2654 13.5513C15.8178 11.999 17.8564 11.0313 20.0356 10.8075V1.7145C20.0356 1.45876 20.1372 1.21349 20.318 1.03266L20.318 1.03265C20.4987 0.851987 20.7437 0.750414 20.9992 0.750223M1.03243 40.9676L28.787 2.42879L28.7885 2.17879C28.7883 2.17879 28.7881 2.17879 28.7878 2.17879C27.1283 2.16842 26.1177 1.82936 25.0775 1.4804L25.0217 1.46167C23.9482 1.10172 22.8363 0.739727 20.9992 0.750223M1.03243 40.9676C1.21327 41.1484 1.45854 41.25 1.71428 41.25H40.2855C40.5412 41.25 40.7865 41.1484 40.9673 40.9676C41.1482 40.7867 41.2498 40.5415 41.2498 40.2857V37.4286C41.2498 37.1728 41.1482 36.9276 40.9673 36.7467C40.7865 36.5659 40.5412 36.4643 40.2855 36.4643H39.8212M1.03243 40.9676L39.8212 36.4643M20.9992 0.750223C20.9994 0.750223 20.9996 0.750223 20.9999 0.750223V1.00022L20.9984 0.750227C20.9987 0.750226 20.9989 0.750225 20.9992 0.750223ZM39.8212 36.4643V17.4287C39.8212 17.173 39.7196 16.9277 39.5388 16.7469C39.3579 16.566 39.1127 16.4644 38.8569 16.4644H33.1427C32.8869 16.4644 32.6417 16.566 32.4608 16.7469C32.28 16.9277 32.1784 17.173 32.1784 17.4287V19.3215H30.4782C30.2544 17.1423 29.2868 15.1037 27.7344 13.5513C26.182 11.999 24.1434 11.0313 21.9642 10.8075V7.72723C23.1139 7.845 23.9297 8.1162 24.7578 8.39148C24.8548 8.42373 24.952 8.45605 25.05 8.48817C26.0551 8.81794 27.1166 9.11999 28.7879 9.10732M39.8212 36.4643L29.2921 2.638L29.4688 2.46122C29.6497 2.64206 29.7513 2.88733 29.7513 3.14307V8.14304C29.7513 8.39878 29.6497 8.64405 29.4688 8.82489C29.2882 9.0055 29.0433 9.10707 28.7879 9.10732M28.7879 9.10732C28.7876 9.10732 28.7873 9.10732 28.787 9.10732V8.85732L28.7889 9.10732C28.7886 9.10732 28.7883 9.10732 28.7879 9.10732ZM21.9642 5.78551V2.72547C23.0751 2.83305 23.8743 3.10049 24.6964 3.37563C24.7213 3.38398 24.7463 3.39234 24.7713 3.4007C25.6379 3.69048 26.5361 3.98154 27.8227 4.07334V7.13478C26.7131 7.02669 25.9147 6.75914 25.0937 6.48399C25.0678 6.47531 25.0419 6.46663 25.0159 6.45795C24.1493 6.1678 23.2512 5.87671 21.9642 5.78551ZM34.107 18.393H37.8927V36.4643H34.107V18.393ZM30.5356 21.2501H32.1784V36.4643H30.5356V21.2501ZM20.9999 12.6787C22.8966 12.6813 24.7241 13.3916 26.1247 14.6707C27.4576 15.888 28.3125 17.537 28.5422 19.3215H13.4576C13.6872 17.537 14.5422 15.888 15.8751 14.6707C17.2757 13.3916 19.1032 12.6813 20.9999 12.6787ZM28.607 21.2501V36.4643H26.9641V21.2501H28.607ZM25.0356 21.2501V36.4643H23.7499V21.2501H25.0356ZM21.8213 21.2501V36.4643H20.1785V21.2501H21.8213ZM18.2499 21.2501V36.4643H16.9642V21.2501H18.2499ZM13.3928 21.2501H15.0356V36.4643H13.3928V21.2501ZM9.82138 21.2501H11.4642V36.4643H9.82138V21.2501ZM4.10713 18.393H7.89282V36.4643H4.10713V18.393ZM2.67856 39.3214V38.3929H39.3212V39.3214H2.67856Z" fill="#114171" stroke="#114171" stroke-width="0.5"/>
<rect x="13.8574" y="21.0002" width="3.57141" height="15.7142" fill="white"/>
<rect x="21" y="21.0001" width="3.57141" height="15.7142" fill="white"/>
<rect x="27.4287" y="21.0002" width="3.57141" height="15.7142" fill="white"/>
</svg>
