<svg width="42" height="42" viewBox="0 0 42 42" fill="none" xmlns="http://www.w3.org/2000/svg">
<path d="M2 41H40C40.2652 41 40.5196 40.8946 40.7071 40.7071C40.8946 40.5196 41 40.2652 41 40V16C41 15.7348 40.8946 15.4804 40.7071 15.2929C40.5196 15.1054 40.2652 15 40 15H35V6C35 5.73478 34.8946 5.48043 34.7071 5.29289C34.5196 5.10536 34.2652 5 34 5H29V4C29 3.20435 28.6839 2.44129 28.1213 1.87868C27.5587 1.31607 26.7956 1 26 1H16C15.2044 1 14.4413 1.31607 13.8787 1.87868C13.3161 2.44129 13 3.20435 13 4V5H8C7.73478 5 7.48043 5.10536 7.29289 5.29289C7.10536 5.48043 7 5.73478 7 6V15H2C1.73478 15 1.48043 15.1054 1.29289 15.2929C1.10536 15.4804 1 15.7348 1 16V40C1 40.2652 1.10536 40.5196 1.29289 40.7071C1.48043 40.8946 1.73478 41 2 41ZM35 17H39V39H35V17ZM24 39H18V32H24V39ZM15 4C15 3.73478 15.1054 3.48043 15.2929 3.29289C15.4804 3.10536 15.7348 3 16 3H26C26.2652 3 26.5196 3.10536 26.7071 3.29289C26.8946 3.48043 27 3.73478 27 4V14C27 14.2652 26.8946 14.5196 26.7071 14.7071C26.5196 14.8946 26.2652 15 26 15H16C15.7348 15 15.4804 14.8946 15.2929 14.7071C15.1054 14.5196 15 14.2652 15 14V4ZM9 7H13V14C13 14.7956 13.3161 15.5587 13.8787 16.1213C14.4413 16.6839 15.2044 17 16 17H26C26.7956 17 27.5587 16.6839 28.1213 16.1213C28.6839 15.5587 29 14.7956 29 14V7H33V39H26V31C26 30.7348 25.8946 30.4804 25.7071 30.2929C25.5196 30.1054 25.2652 30 25 30H17C16.7348 30 16.4804 30.1054 16.2929 30.2929C16.1054 30.4804 16 30.7348 16 31V39H9V7ZM3 17H7V39H3V17Z" fill="#114171" stroke="#114171" stroke-width="0.5"/>
<path d="M18 10H20V12C20 12.2652 20.1054 12.5196 20.2929 12.7071C20.4804 12.8946 20.7348 13 21 13C21.2652 13 21.5196 12.8946 21.7071 12.7071C21.8946 12.5196 22 12.2652 22 12V10H24C24.2652 10 24.5196 9.89464 24.7071 9.70711C24.8946 9.51957 25 9.26522 25 9C25 8.73478 24.8946 8.48043 24.7071 8.29289C24.5196 8.10536 24.2652 8 24 8H22V6C22 5.73478 21.8946 5.48043 21.7071 5.29289C21.5196 5.10536 21.2652 5 21 5C20.7348 5 20.4804 5.10536 20.2929 5.29289C20.1054 5.48043 20 5.73478 20 6V8H18C17.7348 8 17.4804 8.10536 17.2929 8.29289C17.1054 8.48043 17 8.73478 17 9C17 9.26522 17.1054 9.51957 17.2929 9.70711C17.4804 9.89464 17.7348 10 18 10ZM14 22H16C16.2652 22 16.5196 21.8946 16.7071 21.7071C16.8946 21.5196 17 21.2652 17 21C17 20.7348 16.8946 20.4804 16.7071 20.2929C16.5196 20.1054 16.2652 20 16 20H14C13.7348 20 13.4804 20.1054 13.2929 20.2929C13.1054 20.4804 13 20.7348 13 21C13 21.2652 13.1054 21.5196 13.2929 21.7071C13.4804 21.8946 13.7348 22 14 22ZM17 26C17 25.7348 16.8946 25.4804 16.7071 25.2929C16.5196 25.1054 16.2652 25 16 25H14C13.7348 25 13.4804 25.1054 13.2929 25.2929C13.1054 25.4804 13 25.7348 13 26C13 26.2652 13.1054 26.5196 13.2929 26.7071C13.4804 26.8946 13.7348 27 14 27H16C16.2652 27 16.5196 26.8946 16.7071 26.7071C16.8946 26.5196 17 26.2652 17 26ZM20 22H22C22.2652 22 22.5196 21.8946 22.7071 21.7071C22.8946 21.5196 23 21.2652 23 21C23 20.7348 22.8946 20.4804 22.7071 20.2929C22.5196 20.1054 22.2652 20 22 20H20C19.7348 20 19.4804 20.1054 19.2929 20.2929C19.1054 20.4804 19 20.7348 19 21C19 21.2652 19.1054 21.5196 19.2929 21.7071C19.4804 21.8946 19.7348 22 20 22ZM20 27H22C22.2652 27 22.5196 26.8946 22.7071 26.7071C22.8946 26.5196 23 26.2652 23 26C23 25.7348 22.8946 25.4804 22.7071 25.2929C22.5196 25.1054 22.2652 25 22 25H20C19.7348 25 19.4804 25.1054 19.2929 25.2929C19.1054 25.4804 19 25.7348 19 26C19 26.2652 19.1054 26.5196 19.2929 26.7071C19.4804 26.8946 19.7348 27 20 27ZM26 22H28C28.2652 22 28.5196 21.8946 28.7071 21.7071C28.8946 21.5196 29 21.2652 29 21C29 20.7348 28.8946 20.4804 28.7071 20.2929C28.5196 20.1054 28.2652 20 28 20H26C25.7348 20 25.4804 20.1054 25.2929 20.2929C25.1054 20.4804 25 20.7348 25 21C25 21.2652 25.1054 21.5196 25.2929 21.7071C25.4804 21.8946 25.7348 22 26 22ZM26 27H28C28.2652 27 28.5196 26.8946 28.7071 26.7071C28.8946 26.5196 29 26.2652 29 26C29 25.7348 28.8946 25.4804 28.7071 25.2929C28.5196 25.1054 28.2652 25 28 25H26C25.7348 25 25.4804 25.1054 25.2929 25.2929C25.1054 25.4804 25 25.7348 25 26C25 26.2652 25.1054 26.5196 25.2929 26.7071C25.4804 26.8946 25.7348 27 26 27Z" fill="#114171" stroke="#114171" stroke-width="0.5"/>
</svg>
