<svg width="40" height="40" viewBox="0 0 40 40" fill="none" xmlns="http://www.w3.org/2000/svg">
<g id="Mission Icon">
<mask id="mask0_630_1206" style="mask-type:alpha" maskUnits="userSpaceOnUse" x="0" y="0" width="40" height="40">
<rect id="Rectangle 3885" width="40" height="40" fill="#D9D9D9"/>
</mask>
<g mask="url(#mask0_630_1206)">
<g id="Group 20903">
<path id="Vector" d="M25.4301 20.6776C25.4301 23.4984 23.1433 25.7852 20.3226 25.7852C17.5018 25.7852 15.215 23.4984 15.215 20.6776C15.215 17.8568 17.5018 15.5701 20.3226 15.5701C23.1433 15.5701 25.4301 17.8568 25.4301 20.6776Z" stroke="#114171" stroke-width="2.5" stroke-miterlimit="10"/>
<path id="Vector_2" d="M30.5376 20.6775C30.5376 26.3192 25.9642 30.8926 20.3226 30.8926C14.681 30.8926 10.1075 26.3192 10.1075 20.6775C10.1075 15.0359 14.681 10.4625 20.3226 10.4625C25.9642 10.4625 30.5376 15.0359 30.5376 20.6775Z" stroke="#114171" stroke-width="2.5" stroke-miterlimit="10"/>
<path id="Vector_3" d="M33.3795 12.6547C34.8164 14.9882 35.6451 17.736 35.6451 20.6774C35.6451 29.1398 28.7849 36 20.3226 36C11.8602 36 5 29.1398 5 20.6774C5 12.215 11.8602 5.35485 20.3226 5.35485C23.264 5.35485 26.0118 6.18363 28.3452 7.62042" stroke="#114171" stroke-width="2.5" stroke-miterlimit="10"/>
<path id="Vector_4" d="M20.3226 20.6768L27.5456 13.4537" stroke="#114171" stroke-width="2.5" stroke-miterlimit="10"/>
<path id="Vector_5" d="M27.5457 13.4551L33.3793 12.6556L37.0004 9.03462L33.3281 7.67261L31.9661 4.00037L28.3451 7.62147L27.5457 13.4551Z" stroke="#114171" stroke-width="2.5" stroke-miterlimit="10"/>
</g>
</g>
</g>
</svg>
