<svg width="48" height="48" viewBox="0 0 48 48" fill="none" xmlns="http://www.w3.org/2000/svg">
<g id="Frame" clip-path="url(#clip0_206_2863)">
<g id="Group">
<g id="Group_2">
<path id="Vector" d="M13.0001 6C19.3881 6 24.0001 11.274 24.0001 19.084C23.9601 30.43 15.4301 38.452 3.12405 39.992C1.98405 40.136 1.54405 38.552 2.59405 38.086C7.31405 35.986 9.70005 33.322 10.0081 30.686C10.2381 28.716 9.16805 26.99 7.82205 26.666C4.33605 25.828 2.00005 21.486 2.00005 17C2.00005 14.0826 3.15898 11.2847 5.22188 9.22183C7.28478 7.15893 10.0827 6 13.0001 6ZM37.0001 6C43.3881 6 48.0001 11.274 48.0001 19.084C47.9601 30.43 39.4301 38.452 27.1241 39.992C25.9841 40.136 25.5441 38.552 26.5941 38.086C31.3141 35.986 33.7001 33.322 34.0081 30.686C34.2381 28.716 33.1681 26.99 31.8221 26.666C28.3361 25.828 26.0001 21.486 26.0001 17C26.0001 14.0826 27.159 11.2847 29.2219 9.22183C31.2848 7.15893 34.0827 6 37.0001 6Z" fill="#ACAFB5"/>
</g>
</g>
</g>
<defs>
<clipPath id="clip0_206_2863">
<rect width="48" height="48" fill="white"/>
</clipPath>
</defs>
</svg>
