<svg width="40" height="40" viewBox="0 0 40 40" fill="none" xmlns="http://www.w3.org/2000/svg">
<g id="Value Icon">
<mask id="mask0_630_1216" style="mask-type:alpha" maskUnits="userSpaceOnUse" x="0" y="0" width="40" height="40">
<rect id="Rectangle 3887" width="40" height="40" fill="#D9D9D9"/>
</mask>
<g mask="url(#mask0_630_1216)">
<path id="Vector" d="M31.0521 3H8.94982L2 12.477L20.0746 36.2992L38 12.4742L31.0521 3ZM11.8811 13.5181L16.9734 28.7316L5.43045 13.5181H11.8811ZM14.0995 13.5181H25.9087L20.0446 31.2795L14.0995 13.5181ZM28.1241 13.5181H34.5821L23.0742 28.8134L28.1241 13.5181ZM29.986 5.10363L34.614 11.4145H28.1255L26.0548 5.10363H29.986ZM23.8408 5.10363L25.9115 11.4145H14.0904L16.1611 5.10363H23.8408ZM10.0158 5.10363H13.9471L11.8763 11.4145H5.38782L10.0158 5.10363Z" fill="#114171"/>
</g>
</g>
</svg>
